Questrial-Regular.ufo
<glyph name="dollar" format="2">
  <advance width="615"/>
  <unicode hex="0024"/>
  <anchor x="308" y="0" name="bottom"/>
  <anchor x="308" y="662" name="top"/>
  <outline>
    <contour>
      <point x="279" y="746" type="line"/>
      <point x="279" y="-87" type="line"/>
      <point x="345" y="-87" type="line"/>
      <point x="345" y="746" type="line"/>
    </contour>
    <component base="S"/>
  </outline>
</glyph>
<glyph name="percent" format="2">
  <advance width="845"/>
  <unicode hex="0025"/>
  <outline>
    <contour>
      <point x="161" y="-12" type="line"/>
      <point x="224" y="-12" type="line"/>
      <point x="683" y="670" type="line"/>
      <point x="620" y="670" type="line"/>
    </contour>
    <contour>
      <point x="192" y="288" type="curve" smooth="yes"/>
      <point x="284" y="288"/>
      <point x="342" y="354"/>
      <point x="342" y="477" type="curve" smooth="yes"/>
      <point x="342" y="574"/>
      <point x="300" y="665"/>
      <point x="192" y="667" type="curve" smooth="yes"/>
      <point x="99" y="667"/>
      <point x="42" y="601"/>
      <point x="42" y="477" type="curve" smooth="yes"/>
      <point x="42" y="354"/>
      <point x="99" y="288"/>
    </contour>
    <contour>
      <point x="192" y="345" type="curve" smooth="yes"/>
      <point x="136" y="345"/>
      <point x="103" y="389"/>
      <point x="103" y="477" type="curve" smooth="yes"/>
      <point x="103" y="565"/>
      <point x="136" y="609"/>
      <point x="192" y="609" type="curve" smooth="yes"/>
      <point x="246" y="609"/>
      <point x="280" y="565"/>
      <point x="280" y="477" type="curve" smooth="yes"/>
      <point x="280" y="416"/>
      <point x="259" y="347"/>
    </contour>
    <contour>
      <point x="653" y="-8" type="curve" smooth="yes"/>
      <point x="745" y="-8"/>
      <point x="803" y="58"/>
      <point x="803" y="181" type="curve" smooth="yes"/>
      <point x="803" y="278"/>
      <point x="761" y="369"/>
      <point x="653" y="371" type="curve" smooth="yes"/>
      <point x="560" y="371"/>
      <point x="503" y="305"/>
      <point x="503" y="181" type="curve" smooth="yes"/>
      <point x="503" y="58"/>
      <point x="560" y="-8"/>
    </contour>
    <contour>
      <point x="653" y="49" type="curve" smooth="yes"/>
      <point x="597" y="49"/>
      <point x="564" y="93"/>
      <point x="564" y="181" type="curve" smooth="yes"/>
      <point x="564" y="269"/>
      <point x="597" y="313"/>
      <point x="653" y="313" type="curve" smooth="yes"/>
      <point x="707" y="313"/>
      <point x="741" y="269"/>
      <point x="741" y="181" type="curve" smooth="yes"/>
      <point x="741" y="120"/>
      <point x="720" y="51"/>
    </contour>
  </outline>
</glyph>
<glyph name="parenleft" format="2">
  <advance width="245"/>
  <unicode hex="0028"/>
  <outline>
    <contour>
      <point x="163" y="-138" type="curve"/>
      <point x="231" y="-138" type="line"/>
      <point x="155" y="-17"/>
      <point x="111" y="127"/>
      <point x="111" y="281" type="curve" smooth="yes"/>
      <point x="111" y="434"/>
      <point x="155" y="578"/>
      <point x="231" y="700" type="curve"/>
      <point x="163" y="700" type="line"/>
      <point x="79" y="570"/>
      <point x="35" y="429"/>
      <point x="35" y="281" type="curve" smooth="yes"/>
      <point x="35" y="131"/>
      <point x="79" y="-8"/>
    </contour>
  </outline>
</glyph>
<glyph name="asterisk" format="2">
  <advance width="373"/>
  <unicode hex="002A"/>
  <outline>
    <contour>
      <point x="132" y="397" type="line"/>
      <point x="187" y="492" type="line"/>
      <point x="241" y="397" type="line"/>
      <point x="292" y="434" type="line"/>
      <point x="218" y="516" type="line"/>
      <point x="325" y="538" type="line"/>
      <point x="306" y="598" type="line"/>
      <point x="206" y="553" type="line"/>
      <point x="218" y="662" type="line"/>
      <point x="155" y="662" type="line"/>
      <point x="167" y="553" type="line"/>
      <point x="67" y="598" type="line"/>
      <point x="48" y="538" type="line"/>
      <point x="155" y="515" type="line"/>
      <point x="81" y="434" type="line"/>
    </contour>
  </outline>
</glyph>
<glyph name="eight" format="2">
  <advance width="550"/>
  <unicode hex="0038"/>
  <outline>
    <contour>
      <point x="275" y="-8" type="curve" smooth="yes"/>
      <point x="426" y="-8"/>
      <point x="512" y="73"/>
      <point x="512" y="190" type="curve" smooth="yes"/>
      <point x="512" y="266"/>
      <point x="463" y="334"/>
      <point x="385" y="364" type="curve"/>
      <point x="429" y="380"/>
      <point x="486" y="424"/>
      <point x="486" y="503" type="curve" smooth="yes"/>
      <point x="486" y="602"/>
      <point x="411" y="670"/>
      <point x="275" y="670" type="curve" smooth="yes"/>
      <point x="139" y="670"/>
      <point x="64" y="602"/>
      <point x="64" y="503" type="curve" smooth="yes"/>
      <point x="64" y="424"/>
      <point x="121" y="380"/>
      <point x="165" y="364" type="curve"/>
      <point x="87" y="334"/>
      <point x="38" y="266"/>
      <point x="38" y="190" type="curve" smooth="yes"/>
      <point x="38" y="73"/>
      <point x="124" y="-8"/>
    </contour>
    <contour>
      <point x="275" y="396" type="curve" smooth="yes"/>
      <point x="213" y="396"/>
      <point x="139" y="426"/>
      <point x="139" y="499" type="curve" smooth="yes"/>
      <point x="139" y="562"/>
      <point x="195" y="598"/>
      <point x="275" y="598" type="curve" smooth="yes"/>
      <point x="355" y="598"/>
      <point x="411" y="562"/>
      <point x="411" y="499" type="curve" smooth="yes"/>
      <point x="411" y="426"/>
      <point x="337" y="396"/>
    </contour>
    <contour>
      <point x="275" y="64" type="curve" smooth="yes"/>
      <point x="176" y="64"/>
      <point x="113" y="113"/>
      <point x="113" y="191" type="curve" smooth="yes"/>
      <point x="113" y="277"/>
      <point x="186" y="327"/>
      <point x="275" y="327" type="curve" smooth="yes"/>
      <point x="364" y="327"/>
      <point x="437" y="277"/>
      <point x="437" y="191" type="curve" smooth="yes"/>
      <point x="437" y="113"/>
      <point x="374" y="64"/>
    </contour>
  </outline>
</glyph>
<glyph name="colon" format="2">
  <advance width="203"/>
  <unicode hex="003A"/>
  <outline>
    <contour>
      <point x="53" y="398" type="line"/>
      <point x="150" y="398" type="line"/>
      <point x="150" y="500" type="line"/>
      <point x="53" y="500" type="line"/>
    </contour>
    <contour>
      <point x="53" y="0" type="line"/>
      <point x="150" y="0" type="line"/>
      <point x="150" y="102" type="line"/>
      <point x="53" y="102" type="line"/>
    </contour>
  </outline>
</glyph>
<glyph name="less" format="2">
  <advance width="550"/>
  <unicode hex="003C"/>
  <outline>
    <contour>
      <point x="507" y="8" type="line"/>
      <point x="507" y="86" type="line"/>
      <point x="102" y="252" type="line"/>
      <point x="507" y="418" type="line"/>
      <point x="507" y="496" type="line"/>
      <point x="26" y="283" type="line"/>
      <point x="26" y="220" type="line"/>
    </contour>
  </outline>
</glyph>
<glyph name="equal" format="2">
  <advance width="550"/>
  <unicode hex="003D"/>
  <outline>
    <contour>
      <point x="57" y="301" type="line"/>
      <point x="493" y="301" type="line"/>
      <point x="493" y="368" type="line"/>
      <point x="57" y="368" type="line"/>
    </contour>
    <contour>
      <point x="57" y="103" type="line"/>
      <point x="493" y="103" type="line"/>
      <point x="493" y="170" type="line"/>
      <point x="57" y="170" type="line"/>
    </contour>
  </outline>
</glyph>
<glyph name="question" format="2">
  <advance width="510"/>
  <unicode hex="003F"/>
  <outline>
    <contour>
      <point x="227" y="183" type="curve"/>
      <point x="300" y="183" type="line"/>
      <point x="300" y="324"/>
      <point x="465" y="333"/>
      <point x="465" y="489" type="curve" smooth="yes"/>
      <point x="465" y="579"/>
      <point x="404" y="670"/>
      <point x="260" y="670" type="curve" smooth="yes"/>
      <point x="128" y="670"/>
      <point x="45" y="576"/>
      <point x="39" y="466" type="curve"/>
      <point x="110" y="466" type="line"/>
      <point x="116" y="536"/>
      <point x="168" y="601"/>
      <point x="266" y="601" type="curve" smooth="yes"/>
      <point x="364" y="601"/>
      <point x="394" y="539"/>
      <point x="394" y="489" type="curve" smooth="yes"/>
      <point x="394" y="366"/>
      <point x="227" y="347"/>
    </contour>
    <contour>
      <point x="215" y="0" type="line"/>
      <point x="312" y="0" type="line"/>
      <point x="312" y="102" type="line"/>
      <point x="215" y="102" type="line"/>
    </contour>
  </outline>
</glyph>
<glyph name="A" format="2">
  <advance width="662"/>
  <unicode hex="0041"/>
  <anchor x="331" y="0" name="bottom"/>
  <anchor x="669" y="0" name="ogonek"/>
  <anchor x="331" y="662" name="top"/>
  <outline>
    <contour>
      <point x="3" y="0" type="line"/>
      <point x="86" y="0" type="line"/>
      <point x="167" y="192" type="line"/>
      <point x="495" y="192" type="line"/>
      <point x="576" y="0" type="line"/>
      <point x="659" y="0" type="line"/>
      <point x="378" y="662" type="line"/>
      <point x="284" y="662" type="line"/>
    </contour>
    <contour>
      <point x="196" y="261" type="line"/>
      <point x="331" y="584" type="line"/>
      <point x="466" y="261" type="line"/>
    </contour>
  </outline>
</glyph>
<glyph name="B" format="2">
  <advance width="662"/>
  <unicode hex="0042"/>
  <anchor x="331" y="0" name="bottom"/>
  <anchor x="331" y="662" name="top"/>
  <outline>
    <contour>
      <point x="81" y="0" type="line"/>
      <point x="395" y="0" type="line" smooth="yes"/>
      <point x="546" y="0"/>
      <point x="621" y="75"/>
      <point x="621" y="174" type="curve" smooth="yes"/>
      <point x="621" y="273"/>
      <point x="554" y="320"/>
      <point x="498" y="338" type="curve"/>
      <point x="545" y="359"/>
      <point x="587" y="402"/>
      <point x="587" y="487" type="curve" smooth="yes"/>
      <point x="587" y="567"/>
      <point x="534" y="662"/>
      <point x="378" y="662" type="curve" smooth="yes"/>
      <point x="81" y="662" type="line"/>
    </contour>
    <contour>
      <point x="156" y="366" type="line"/>
      <point x="156" y="591" type="line"/>
      <point x="386" y="591" type="line" smooth="yes"/>
      <point x="477" y="591"/>
      <point x="512" y="536"/>
      <point x="512" y="481" type="curve" smooth="yes"/>
      <point x="512" y="400"/>
      <point x="447" y="366"/>
      <point x="378" y="366" type="curve" smooth="yes"/>
    </contour>
    <contour>
      <point x="156" y="71" type="line"/>
      <point x="156" y="298" type="line"/>
      <point x="395" y="298" type="line" smooth="yes"/>
      <point x="500" y="298"/>
      <point x="546" y="242"/>
      <point x="546" y="180" type="curve" smooth="yes"/>
      <point x="546" y="111"/>
      <point x="494" y="71"/>
      <point x="403" y="71" type="curve" smooth="yes"/>
    </contour>
  </outline>
</glyph>
<glyph name="D" format="2">
  <advance width="703"/>
  <unicode hex="0044"/>
  <anchor x="340" y="0" name="bottom"/>
  <anchor x="352" y="331" name="center"/>
  <anchor x="352" y="662" name="top"/>
  <outline>
    <contour>
      <point x="81" y="0" type="line"/>
      <point x="360" y="0" type="line" smooth="yes"/>
      <point x="518" y="0"/>
      <point x="664" y="124"/>
      <point x="664" y="331" type="curve" smooth="yes"/>
      <point x="664" y="538"/>
      <point x="518" y="662"/>
      <point x="360" y="662" type="curve" smooth="yes"/>
      <point x="81" y="662" type="line"/>
    </contour>
    <contour>
      <point x="156" y="71" type="line"/>
      <point x="156" y="591" type="line"/>
      <point x="357" y="591" type="line" smooth="yes"/>
      <point x="498" y="591"/>
      <point x="589" y="473"/>
      <point x="589" y="331" type="curve" smooth="yes"/>
      <point x="589" y="191"/>
      <point x="499" y="71"/>
      <point x="357" y="71" type="curve" smooth="yes"/>
    </contour>
  </outline>
</glyph>
<glyph name="H" format="2">
  <advance width="697"/>
  <unicode hex="0048"/>
  <anchor x="349" y="0" name="bottom"/>
  <anchor x="349" y="504" name="center"/>
  <anchor x="349" y="662" name="top"/>
  <anchor x="20" y="662" name="topleft"/>
  <outline>
    <contour>
      <point x="81" y="0" type="line"/>
      <point x="156" y="0" type="line"/>
      <point x="156" y="295" type="line"/>
      <point x="541" y="295" type="line"/>
      <point x="541" y="0" type="line"/>
      <point x="616" y="0" type="line"/>
      <point x="616" y="662" type="line"/>
      <point x="541" y="662" type="line"/>
      <point x="541" y="368" type="line"/>
      <point x="156" y="368" type="line"/>
      <point x="156" y="662" type="line"/>
      <point x="81" y="662" type="line"/>
    </contour>
  </outline>
</glyph>
<glyph name="J" format="2">
  <advance width="527"/>
  <unicode hex="004A"/>
  <anchor x="264" y="0" name="bottom"/>
  <anchor x="413" y="662" name="top"/>
  <outline>
    <contour>
      <point x="236" y="-8" type="curve" smooth="yes"/>
      <point x="396" y="-8"/>
      <point x="452" y="103"/>
      <point x="452" y="219" type="curve" smooth="yes"/>
      <point x="452" y="662" type="line"/>
      <point x="377" y="662" type="line"/>
      <point x="377" y="222" type="line" smooth="yes"/>
      <point x="377" y="154"/>
      <point x="360" y="65"/>
      <point x="240" y="65" type="curve" smooth="yes"/>
      <point x="146" y="65"/>
      <point x="101" y="125"/>
      <point x="93" y="177" type="curve"/>
      <point x="15" y="177" type="line"/>
      <point x="24" y="87"/>
      <point x="93" y="-8"/>
    </contour>
  </outline>
</glyph>
<glyph name="K" format="2">
  <advance width="641"/>
  <unicode hex="004B"/>
  <anchor x="321" y="0" name="bottom"/>
  <anchor x="321" y="662" name="top"/>
  <outline>
    <contour>
      <point x="81" y="0" type="line"/>
      <point x="156" y="0" type="line"/>
      <point x="156" y="217" type="line"/>
      <point x="293" y="345" type="line"/>
      <point x="552" y="0" type="line"/>
      <point x="646" y="0" type="line"/>
      <point x="348" y="396" type="line"/>
      <point x="630" y="662" type="line"/>
      <point x="524" y="662" type="line"/>
      <point x="156" y="317" type="line"/>
      <point x="156" y="662" type="line"/>
      <point x="81" y="662" type="line"/>
    </contour>
  </outline>
</glyph>
<glyph name="N" format="2">
  <advance width="733"/>
  <unicode hex="004E"/>
  <anchor x="367" y="0" name="bottom"/>
  <anchor x="367" y="662" name="top"/>
  <outline>
    <contour>
      <point x="81" y="0" type="line"/>
      <point x="156" y="0" type="line"/>
      <point x="156" y="559" type="line"/>
      <point x="565" y="0" type="line"/>
      <point x="652" y="0" type="line"/>
      <point x="652" y="662" type="line"/>
      <point x="577" y="662" type="line"/>
      <point x="577" y="105" type="line"/>
      <point x="168" y="662" type="line"/>
      <point x="81" y="662" type="line"/>
    </contour>
  </outline>
</glyph>
<glyph name="O" format="2">
  <advance width="750"/>
  <unicode hex="004F"/>
  <anchor x="375" y="0" name="bottom"/>
  <anchor x="375" y="331" name="center"/>
  <anchor x="455" y="0" name="ogonek"/>
  <anchor x="375" y="662" name="top"/>
  <anchor x="20" y="662" name="topleft"/>
  <anchor x="534" y="662" name="topright"/>
  <outline>
    <contour>
      <point x="375" y="-8" type="curve" smooth="yes"/>
      <point x="576" y="-8"/>
      <point x="711" y="143"/>
      <point x="711" y="331" type="curve" smooth="yes"/>
      <point x="711" y="519"/>
      <point x="576" y="670"/>
      <point x="375" y="670" type="curve" smooth="yes"/>
      <point x="174" y="670"/>
      <point x="39" y="519"/>
      <point x="39" y="331" type="curve" smooth="yes"/>
      <point x="39" y="143"/>
      <point x="174" y="-8"/>
    </contour>
    <contour>
      <point x="375" y="65" type="curve" smooth="yes"/>
      <point x="214" y="65"/>
      <point x="114" y="182"/>
      <point x="114" y="331" type="curve" smooth="yes"/>
      <point x="114" y="480"/>
      <point x="214" y="597"/>
      <point x="375" y="597" type="curve" smooth="yes"/>
      <point x="536" y="597"/>
      <point x="636" y="480"/>
      <point x="636" y="331" type="curve" smooth="yes"/>
      <point x="636" y="182"/>
      <point x="536" y="65"/>
    </contour>
  </outline>
</glyph>
<glyph name="P" format="2">
  <advance width="628"/>
  <unicode hex="0050"/>
  <anchor x="314" y="0" name="bottom"/>
  <anchor x="314" y="662" name="top"/>
  <outline>
    <contour>
      <point x="81" y="0" type="line"/>
      <point x="156" y="0" type="line"/>
      <point x="156" y="236" type="line"/>
      <point x="379" y="236" type="line" smooth="yes"/>
      <point x="520" y="236"/>
      <point x="607" y="318"/>
      <point x="607" y="449" type="curve" smooth="yes"/>
      <point x="607" y="579"/>
      <point x="520" y="662"/>
      <point x="379" y="662" type="curve" smooth="yes"/>
      <point x="81" y="662" type="line"/>
    </contour>
    <contour>
      <point x="156" y="306" type="line"/>
      <point x="156" y="591" type="line"/>
      <point x="374" y="591" type="line" smooth="yes"/>
      <point x="478" y="591"/>
      <point x="532" y="537"/>
      <point x="532" y="449" type="curve" smooth="yes"/>
      <point x="532" y="360"/>
      <point x="478" y="306"/>
      <point x="374" y="306" type="curve" smooth="yes"/>
    </contour>
  </outline>
</glyph>
<glyph name="R" format="2">
  <advance width="669"/>
  <unicode hex="0052"/>
  <anchor x="335" y="0" name="bottom"/>
  <anchor x="335" y="662" name="top"/>
  <outline>
    <contour>
      <point x="81" y="0" type="line"/>
      <point x="156" y="0" type="line"/>
      <point x="156" y="254" type="line"/>
      <point x="386" y="254" type="line"/>
      <point x="546" y="0" type="line"/>
      <point x="635" y="0" type="line"/>
      <point x="461" y="267" type="line"/>
      <point x="535" y="284"/>
      <point x="621" y="327"/>
      <point x="621" y="455" type="curve" smooth="yes"/>
      <point x="621" y="581"/>
      <point x="534" y="662"/>
      <point x="398" y="662" type="curve" smooth="yes"/>
      <point x="81" y="662" type="line"/>
    </contour>
    <contour>
      <point x="156" y="325" type="line"/>
      <point x="156" y="591" type="line"/>
      <point x="389" y="591" type="line" smooth="yes"/>
      <point x="483" y="591"/>
      <point x="546" y="539"/>
      <point x="546" y="455" type="curve" smooth="yes"/>
      <point x="546" y="352"/>
      <point x="456" y="325"/>
      <point x="385" y="325" type="curve" smooth="yes"/>
    </contour>
  </outline>
</glyph>
<glyph name="S" format="2">
  <advance width="615"/>
  <unicode hex="0053"/>
  <anchor x="308" y="0" name="bottom"/>
  <anchor x="308" y="662" name="top"/>
  <outline>
    <contour>
      <point x="318" y="-8" type="curve" smooth="yes"/>
      <point x="481" y="-8"/>
      <point x="580" y="60"/>
      <point x="580" y="183" type="curve" smooth="yes"/>
      <point x="580" y="414"/>
      <point x="125" y="334"/>
      <point x="125" y="488" type="curve" smooth="yes"/>
      <point x="125" y="532"/>
      <point x="151" y="600"/>
      <point x="301" y="600" type="curve" smooth="yes"/>
      <point x="422" y="600"/>
      <point x="478" y="547"/>
      <point x="486" y="481" type="curve"/>
      <point x="563" y="481" type="line"/>
      <point x="557" y="580"/>
      <point x="477" y="670"/>
      <point x="301" y="670" type="curve" smooth="yes"/>
      <point x="135" y="670"/>
      <point x="52" y="595"/>
      <point x="52" y="487" type="curve" smooth="yes"/>
      <point x="52" y="260"/>
      <point x="505" y="342"/>
      <point x="505" y="180" type="curve" smooth="yes"/>
      <point x="505" y="102"/>
      <point x="435" y="63"/>
      <point x="323" y="63" type="curve" smooth="yes"/>
      <point x="208" y="63"/>
      <point x="115" y="102"/>
      <point x="110" y="198" type="curve"/>
      <point x="32" y="198" type="line"/>
      <point x="42" y="79"/>
      <point x="122" y="-8"/>
    </contour>
  </outline>
</glyph>
<glyph name="W" format="2">
  <advance width="958"/>
  <unicode hex="0057"/>
  <anchor x="479" y="0" name="bottom"/>
  <anchor x="479" y="662" name="top"/>
  <outline>
    <contour>
      <point x="215" y="0" type="line"/>
      <point x="300" y="0" type="line"/>
      <point x="479" y="556" type="line"/>
      <point x="658" y="0" type="line"/>
      <point x="743" y="0" type="line"/>
      <point x="949" y="662" type="line"/>
      <point x="870" y="662" type="line"/>
      <point x="700" y="106" type="line"/>
      <point x="522" y="662" type="line"/>
      <point x="436" y="662" type="line"/>
      <point x="258" y="106" type="line"/>
      <point x="88" y="662" type="line"/>
      <point x="9" y="662" type="line"/>
    </contour>
  </outline>
</glyph>
<glyph name="Y" format="2">
  <advance width="636"/>
  <unicode hex="0059"/>
  <anchor x="319" y="0" name="bottom"/>
  <anchor x="319" y="662" name="top"/>
  <anchor x="24" y="662" name="topleft"/>
  <outline>
    <contour>
      <point x="281" y="0" type="line"/>
      <point x="356" y="0" type="line"/>
      <point x="356" y="262" type="line"/>
      <point x="633" y="662" type="line"/>
      <point x="542" y="662" type="line"/>
      <point x="318" y="340" type="line"/>
      <point x="94" y="662" type="line"/>
      <point x="3" y="662" type="line"/>
      <point x="281" y="262" type="line"/>
    </contour>
  </outline>
</glyph>
<glyph name="bracketright" format="2">
  <advance width="280"/>
  <unicode hex="005D"/>
  <outline>
    <contour>
      <point x="27" y="-133" type="line"/>
      <point x="214" y="-133" type="line"/>
      <point x="214" y="679" type="line"/>
      <point x="27" y="679" type="line"/>
      <point x="27" y="617" type="line"/>
      <point x="148" y="617" type="line"/>
      <point x="148" y="-71" type="line"/>
      <point x="27" y="-71" type="line"/>
    </contour>
  </outline>
</glyph>
<glyph name="a" format="2">
  <advance width="595"/>
  <unicode hex="0061"/>
  <anchor x="298" y="0" name="bottom"/>
  <anchor x="540" y="0" name="ogonek"/>
  <anchor x="298" y="500" name="top"/>
  <outline>
    <contour>
      <point x="276" y="-8" type="curve" smooth="yes"/>
      <point x="359" y="-8"/>
      <point x="418" y="26"/>
      <point x="455" y="80" type="curve" smooth="yes"/>
      <point x="455" y="0" type="line"/>
      <point x="530" y="0" type="line"/>
      <point x="530" y="500" type="line"/>
      <point x="455" y="500" type="line"/>
      <point x="455" y="419" type="line"/>
      <point x="418" y="473"/>
      <point x="359" y="508"/>
      <point x="276" y="508" type="curve" smooth="yes"/>
      <point x="130" y="508"/>
      <point x="34" y="393"/>
      <point x="34" y="250" type="curve" smooth="yes"/>
      <point x="34" y="107"/>
      <point x="130" y="-8"/>
    </contour>
    <contour>
      <point x="286" y="60" type="curve" smooth="yes"/>
      <point x="175" y="60"/>
      <point x="109" y="147"/>
      <point x="109" y="250" type="curve" smooth="yes"/>
      <point x="109" y="353"/>
      <point x="175" y="440"/>
      <point x="286" y="440" type="curve" smooth="yes"/>
      <point x="397" y="440"/>
      <point x="459" y="353"/>
      <point x="459" y="250" type="curve" smooth="yes"/>
      <point x="459" y="147"/>
      <point x="397" y="60"/>
    </contour>
  </outline>
</glyph>
<glyph name="c" format="2">
  <advance width="544"/>
  <unicode hex="0063"/>
  <anchor x="272" y="0" name="bottom"/>
  <anchor x="272" y="500" name="top"/>
  <outline>
    <contour>
      <point x="280" y="-8" type="curve" smooth="yes"/>
      <point x="398" y="-8"/>
      <point x="487" y="60"/>
      <point x="516" y="157" type="curve"/>
      <point x="435" y="157" type="line"/>
      <point x="412" y="100"/>
      <point x="361" y="60"/>
      <point x="290" y="60" type="curve" smooth="yes"/>
      <point x="179" y="60"/>
      <point x="109" y="147"/>
      <point x="109" y="250" type="curve" smooth="yes"/>
      <point x="109" y="353"/>
      <point x="179" y="440"/>
      <point x="290" y="440" type="curve" smooth="yes"/>
      <point x="361" y="440"/>
      <point x="412" y="400"/>
      <point x="435" y="343" type="curve"/>
      <point x="516" y="343" type="line"/>
      <point x="487" y="440"/>
      <point x="398" y="508"/>
      <point x="280" y="508" type="curve" smooth="yes"/>
      <point x="130" y="508"/>
      <point x="34" y="393"/>
      <point x="34" y="250" type="curve" smooth="yes"/>
      <point x="34" y="107"/>
      <point x="130" y="-8"/>
    </contour>
  </outline>
</glyph>
<glyph name="g" format="2">
  <advance width="595"/>
  <unicode hex="0067"/>
  <anchor x="298" y="-198" name="bottom"/>
  <anchor x="298" y="500" name="top"/>
  <outline>
    <contour>
      <point x="294" y="-206" type="curve" smooth="yes"/>
      <point x="444" y="-206"/>
      <point x="530" y="-128"/>
      <point x="530" y="15" type="curve" smooth="yes"/>
      <point x="530" y="500" type="line"/>
      <point x="455" y="500" type="line"/>
      <point x="455" y="420" type="line"/>
      <point x="418" y="474"/>
      <point x="359" y="508"/>
      <point x="276" y="508" type="curve" smooth="yes"/>
      <point x="130" y="508"/>
      <point x="34" y="397"/>
      <point x="34" y="254" type="curve" smooth="yes"/>
      <point x="34" y="111"/>
      <point x="130" y="0"/>
      <point x="276" y="0" type="curve" smooth="yes"/>
      <point x="359" y="0"/>
      <point x="418" y="35"/>
      <point x="455" y="89" type="curve"/>
      <point x="455" y="20" type="line" smooth="yes"/>
      <point x="455" y="-83"/>
      <point x="405" y="-138"/>
      <point x="290" y="-138" type="curve" smooth="yes"/>
      <point x="214" y="-138"/>
      <point x="164" y="-109"/>
      <point x="144" y="-60" type="curve"/>
      <point x="61" y="-60" type="line"/>
      <point x="89" y="-147"/>
      <point x="168" y="-206"/>
    </contour>
    <contour>
      <point x="286" y="68" type="curve" smooth="yes"/>
      <point x="175" y="68"/>
      <point x="109" y="151"/>
      <point x="109" y="254" type="curve" smooth="yes"/>
      <point x="109" y="357"/>
      <point x="175" y="440"/>
      <point x="286" y="440" type="curve" smooth="yes"/>
      <point x="395" y="440"/>
      <point x="459" y="357"/>
      <point x="459" y="254" type="curve" smooth="yes"/>
      <point x="459" y="151"/>
      <point x="395" y="68"/>
    </contour>
  </outline>
</glyph>
<glyph name="h" format="2">
  <advance width="566"/>
  <unicode hex="0068"/>
  <anchor x="283" y="0" name="bottom"/>
  <anchor x="112" y="574" name="center"/>
  <anchor x="102" y="700" name="top"/>
  <outline>
    <contour>
      <point x="65" y="0" type="line"/>
      <point x="140" y="0" type="line"/>
      <point x="140" y="288" type="line" smooth="yes"/>
      <point x="140" y="378"/>
      <point x="208" y="440"/>
      <point x="291" y="440" type="curve" smooth="yes"/>
      <point x="373" y="440"/>
      <point x="431" y="380"/>
      <point x="431" y="289" type="curve" smooth="yes"/>
      <point x="431" y="0" type="line"/>
      <point x="506" y="0" type="line"/>
      <point x="506" y="291" type="line" smooth="yes"/>
      <point x="506" y="433"/>
      <point x="409" y="508"/>
      <point x="306" y="508" type="curve" smooth="yes"/>
      <point x="225" y="508"/>
      <point x="176" y="470"/>
      <point x="140" y="422" type="curve"/>
      <point x="140" y="700" type="line"/>
      <point x="65" y="700" type="line"/>
    </contour>
  </outline>
</glyph>
<glyph name="i" format="2">
  <advance width="205"/>
  <unicode hex="0069"/>
  <anchor x="103" y="0" name="bottom"/>
  <outline>
    <contour>
      <point x="62" y="584" type="line"/>
      <point x="143" y="584" type="line"/>
      <point x="143" y="682" type="line"/>
      <point x="62" y="682" type="line"/>
    </contour>
    <contour>
      <point x="65" y="0" type="line"/>
      <point x="140" y="0" type="line"/>
      <point x="140" y="500" type="line"/>
      <point x="65" y="500" type="line"/>
    </contour>
  </outline>
</glyph>
<glyph name="p" format="2">
  <advance width="595"/>
  <unicode hex="0070"/>
  <anchor x="297" y="0" name="bottom"/>
  <anchor x="297" y="500" name="top"/>
  <outline>
    <contour>
      <point x="65" y="-198" type="line"/>
      <point x="140" y="-198" type="line"/>
      <point x="140" y="81" type="line"/>
      <point x="177" y="27"/>
      <point x="236" y="-8"/>
      <point x="319" y="-8" type="curve" smooth="yes"/>
      <point x="465" y="-8"/>
      <point x="561" y="107"/>
      <point x="561" y="250" type="curve" smooth="yes"/>
      <point x="561" y="393"/>
      <point x="465" y="508"/>
      <point x="319" y="508" type="curve" smooth="yes"/>
      <point x="236" y="508"/>
      <point x="177" y="474"/>
      <point x="140" y="420" type="curve"/>
      <point x="140" y="500" type="line"/>
      <point x="65" y="500" type="line"/>
    </contour>
    <contour>
      <point x="309" y="60" type="curve" smooth="yes"/>
      <point x="198" y="60"/>
      <point x="136" y="147"/>
      <point x="136" y="250" type="curve" smooth="yes"/>
      <point x="136" y="353"/>
      <point x="198" y="440"/>
      <point x="309" y="440" type="curve" smooth="yes"/>
      <point x="420" y="440"/>
      <point x="486" y="353"/>
      <point x="486" y="250" type="curve" smooth="yes"/>
      <point x="486" y="147"/>
      <point x="420" y="60"/>
    </contour>
  </outline>
</glyph>
<glyph name="t" format="2">
  <advance width="326"/>
  <unicode hex="0074"/>
  <anchor x="156" y="0" name="bottom"/>
  <anchor x="163" y="250" name="center"/>
  <anchor x="157" y="679" name="top"/>
  <anchor x="306" y="500" name="topright"/>
  <outline>
    <contour>
      <point x="119" y="0" type="line"/>
      <point x="194" y="0" type="line"/>
      <point x="194" y="434" type="line"/>
      <point x="309" y="434" type="line"/>
      <point x="309" y="500" type="line"/>
      <point x="194" y="500" type="line"/>
      <point x="194" y="679" type="line"/>
      <point x="119" y="679" type="line"/>
      <point x="119" y="500" type="line"/>
      <point x="17" y="500" type="line"/>
      <point x="17" y="434" type="line"/>
      <point x="119" y="434" type="line"/>
    </contour>
  </outline>
</glyph>
<glyph name="u" format="2">
  <advance width="566"/>
  <unicode hex="0075"/>
  <anchor x="283" y="0" name="bottom"/>
  <anchor x="491" y="0" name="ogonek"/>
  <anchor x="283" y="500" name="top"/>
  <anchor x="658" y="493" name="topright"/>
  <outline>
    <contour>
      <point x="260" y="-8" type="curve" smooth="yes"/>
      <point x="341" y="-8"/>
      <point x="390" y="30"/>
      <point x="426" y="78" type="curve"/>
      <point x="426" y="0" type="line"/>
      <point x="501" y="0" type="line"/>
      <point x="501" y="500" type="line"/>
      <point x="426" y="500" type="line"/>
      <point x="426" y="212" type="line" smooth="yes"/>
      <point x="426" y="122"/>
      <point x="358" y="60"/>
      <point x="275" y="60" type="curve" smooth="yes"/>
      <point x="193" y="60"/>
      <point x="135" y="120"/>
      <point x="135" y="211" type="curve" smooth="yes"/>
      <point x="135" y="500" type="line"/>
      <point x="60" y="500" type="line"/>
      <point x="60" y="209" type="line" smooth="yes"/>
      <point x="60" y="67"/>
      <point x="157" y="-8"/>
    </contour>
  </outline>
</glyph>
<glyph name="braceright" format="2">
  <advance width="294"/>
  <unicode hex="007D"/>
  <outline>
    <contour>
      <point x="25" y="-133" type="line"/>
      <point x="120" y="-133"/>
      <point x="194" y="-124"/>
      <point x="194" y="11" type="curve" smooth="yes"/>
      <point x="194" y="155" type="line" smooth="yes"/>
      <point x="194" y="221"/>
      <point x="242" y="250"/>
      <point x="273" y="250" type="curve"/>
      <point x="273" y="296" type="line"/>
      <point x="242" y="296"/>
      <point x="194" y="325"/>
      <point x="194" y="391" type="curve" smooth="yes"/>
      <point x="194" y="535" type="line" smooth="yes"/>
      <point x="194" y="670"/>
      <point x="120" y="679"/>
      <point x="25" y="679" type="curve"/>
      <point x="25" y="625" type="line"/>
      <point x="105" y="624"/>
      <point x="128" y="604"/>
      <point x="128" y="534" type="curve" smooth="yes"/>
      <point x="128" y="402" type="line" smooth="yes"/>
      <point x="128" y="327"/>
      <point x="161" y="291"/>
      <point x="198" y="273" type="curve"/>
      <point x="161" y="255"/>
      <point x="128" y="219"/>
      <point x="128" y="144" type="curve" smooth="yes"/>
      <point x="128" y="12" type="line" smooth="yes"/>
      <point x="128" y="-58"/>
      <point x="105" y="-78"/>
      <point x="25" y="-79" type="curve"/>
    </contour>
  </outline>
</glyph>
<glyph name="sterling" format="2">
  <advance width="575"/>
  <unicode hex="00A3"/>
  <outline>
    <contour>
      <point x="48" y="0" type="line"/>
      <point x="504" y="0" type="line"/>
      <point x="504" y="70" type="line"/>
      <point x="201" y="70" type="line"/>
      <point x="201" y="319" type="line"/>
      <point x="349" y="319" type="line"/>
      <point x="349" y="377" type="line"/>
      <point x="201" y="377" type="line"/>
      <point x="201" y="446" type="line" smooth="yes"/>
      <point x="201" y="514"/>
      <point x="215" y="599"/>
      <point x="336" y="599" type="curve" smooth="yes"/>
      <point x="411" y="599"/>
      <point x="446" y="560"/>
      <point x="460" y="518" type="curve"/>
      <point x="531" y="518" type="line"/>
      <point x="514" y="597"/>
      <point x="459" y="670"/>
      <point x="333" y="670" type="curve" smooth="yes"/>
      <point x="182" y="670"/>
      <point x="128" y="565"/>
      <point x="128" y="449" type="curve" smooth="yes"/>
      <point x="128" y="377" type="line"/>
      <point x="57" y="377" type="line"/>
      <point x="57" y="319" type="line"/>
      <point x="128" y="319" type="line"/>
      <point x="128" y="70" type="line"/>
      <point x="48" y="61" type="line"/>
    </contour>
  </outline>
</glyph>
<glyph name="yen" format="2">
  <advance width="657"/>
  <unicode hex="00A5"/>
  <outline>
    <contour>
      <point x="291" y="0" type="line"/>
      <point x="366" y="0" type="line"/>
      <point x="366" y="125" type="line"/>
      <point x="559" y="125" type="line"/>
      <point x="559" y="190" type="line"/>
      <point x="366" y="190" type="line"/>
      <point x="366" y="262" type="line"/>
      <point x="383" y="289" type="line"/>
      <point x="559" y="289" type="line"/>
      <point x="559" y="354" type="line"/>
      <point x="424" y="354" type="line"/>
      <point x="620" y="662" type="line"/>
      <point x="529" y="662" type="line"/>
      <point x="328" y="340" type="line"/>
      <point x="128" y="662" type="line"/>
      <point x="37" y="662" type="line"/>
      <point x="232" y="354" type="line"/>
      <point x="98" y="354" type="line"/>
      <point x="98" y="289" type="line"/>
      <point x="274" y="289" type="line"/>
      <point x="291" y="262" type="line"/>
      <point x="291" y="190" type="line"/>
      <point x="98" y="190" type="line"/>
      <point x="98" y="125" type="line"/>
      <point x="291" y="125" type="line"/>
    </contour>
  </outline>
</glyph>
<glyph name="brokenbar" format="2">
  <advance width="191"/>
  <unicode hex="00A6"/>
  <outline>
    <contour>
      <point x="65" y="393" type="line"/>
      <point x="126" y="393" type="line"/>
      <point x="126" y="748" type="line"/>
      <point x="65" y="748" type="line"/>
    </contour>
    <contour>
      <point x="126" y="177" type="line"/>
      <point x="65" y="177" type="line"/>
      <point x="65" y="-179" type="line"/>
      <point x="126" y="-179" type="line"/>
    </contour>
  </outline>
</glyph>
<glyph name="dieresis" format="2">
  <advance width="246"/>
  <unicode hex="00A8"/>
  <outline>
    <contour>
      <point x="0" y="579" type="line"/>
      <point x="89" y="579" type="line"/>
      <point x="89" y="662" type="line"/>
      <point x="0" y="662" type="line"/>
    </contour>
    <contour>
      <point x="157" y="579" type="line"/>
      <point x="246" y="579" type="line"/>
      <point x="246" y="662" type="line"/>
      <point x="157" y="662" type="line"/>
    </contour>
  </outline>
</glyph>
<glyph name="ordfeminine" format="2">
  <advance width="371"/>
  <unicode hex="00AA"/>
  <outline>
    <contour>
      <point x="167" y="392" type="curve" smooth="yes"/>
      <point x="211" y="392"/>
      <point x="242" y="410"/>
      <point x="262" y="439" type="curve"/>
      <point x="262" y="396" type="line"/>
      <point x="314" y="396" type="line"/>
      <point x="314" y="662" type="line"/>
      <point x="262" y="662" type="line"/>
      <point x="262" y="619" type="line"/>
      <point x="242" y="647"/>
      <point x="211" y="666"/>
      <point x="167" y="666" type="curve" smooth="yes"/>
      <point x="87" y="666"/>
      <point x="37" y="605"/>
      <point x="37" y="529" type="curve" smooth="yes"/>
      <point x="37" y="453"/>
      <point x="87" y="392"/>
    </contour>
    <contour>
      <point x="177" y="440" type="curve" smooth="yes"/>
      <point x="119" y="440"/>
      <point x="89" y="477"/>
      <point x="89" y="529" type="curve" smooth="yes"/>
      <point x="89" y="580"/>
      <point x="119" y="618"/>
      <point x="177" y="618" type="curve" smooth="yes"/>
      <point x="230" y="618"/>
      <point x="263" y="580"/>
      <point x="263" y="529" type="curve" smooth="yes"/>
      <point x="263" y="478"/>
      <point x="230" y="440"/>
    </contour>
  </outline>
</glyph>
<glyph name="logicalnot" format="2">
  <advance width="593"/>
  <unicode hex="00AC"/>
  <outline>
    <contour>
      <point x="457" y="186" type="line"/>
      <point x="529" y="186" type="line"/>
      <point x="529" y="389" type="line"/>
      <point x="62" y="389" type="line"/>
      <point x="62" y="321" type="line"/>
      <point x="457" y="321" type="line"/>
    </contour>
  </outline>
</glyph>
<glyph name="registered" format="2">
  <advance width="779"/>
  <unicode hex="00AE"/>
  <outline>
    <contour>
      <point x="389" y="-13" type="curve" smooth="yes"/>
      <point x="578" y="-13"/>
      <point x="732" y="140"/>
      <point x="732" y="329" type="curve" smooth="yes"/>
      <point x="732" y="519"/>
      <point x="578" y="672"/>
      <point x="389" y="672" type="curve" smooth="yes"/>
      <point x="200" y="672"/>
      <point x="47" y="519"/>
      <point x="47" y="329" type="curve" smooth="yes"/>
      <point x="47" y="140"/>
      <point x="200" y="-13"/>
    </contour>
    <contour>
      <point x="389" y="36" type="curve" smooth="yes"/>
      <point x="227" y="36"/>
      <point x="96" y="168"/>
      <point x="96" y="329" type="curve" smooth="yes"/>
      <point x="96" y="491"/>
      <point x="227" y="623"/>
      <point x="389" y="623" type="curve" smooth="yes"/>
      <point x="551" y="623"/>
      <point x="683" y="491"/>
      <point x="683" y="329" type="curve" smooth="yes"/>
      <point x="683" y="168"/>
      <point x="551" y="36"/>
    </contour>
    <contour>
      <point x="240" y="138" type="line"/>
      <point x="310" y="138" type="line"/>
      <point x="310" y="278" type="line"/>
      <point x="407" y="278" type="line" smooth="yes"/>
      <point x="482" y="278"/>
      <point x="484" y="213"/>
      <point x="484" y="176" type="curve" smooth="yes"/>
      <point x="484" y="138" type="line"/>
      <point x="553" y="138" type="line"/>
      <point x="553" y="185" type="line" smooth="yes"/>
      <point x="553" y="224"/>
      <point x="540" y="293"/>
      <point x="483" y="309" type="curve"/>
      <point x="530" y="324"/>
      <point x="558" y="362"/>
      <point x="558" y="407" type="curve" smooth="yes"/>
      <point x="558" y="474"/>
      <point x="510" y="520"/>
      <point x="402" y="520" type="curve" smooth="yes"/>
      <point x="240" y="520" type="line"/>
    </contour>
    <contour>
      <point x="310" y="338" type="line"/>
      <point x="310" y="461" type="line"/>
      <point x="395" y="461" type="line" smooth="yes"/>
      <point x="466" y="461"/>
      <point x="489" y="437"/>
      <point x="489" y="400" type="curve" smooth="yes"/>
      <point x="489" y="360"/>
      <point x="452" y="338"/>
      <point x="397" y="338" type="curve" smooth="yes"/>
    </contour>
  </outline>
</glyph>
<glyph name="degree" format="2">
  <advance width="333"/>
  <unicode hex="00B0"/>
  <outline>
    <contour>
      <point x="166" y="406" type="curve" smooth="yes"/>
      <point x="238" y="406"/>
      <point x="297" y="464"/>
      <point x="297" y="536" type="curve" smooth="yes"/>
      <point x="297" y="608"/>
      <point x="238" y="667"/>
      <point x="166" y="667" type="curve" smooth="yes"/>
      <point x="94" y="667"/>
      <point x="36" y="608"/>
      <point x="36" y="536" type="curve" smooth="yes"/>
      <point x="36" y="464"/>
      <point x="94" y="406"/>
    </contour>
    <contour>
      <point x="166" y="463" type="curve" smooth="yes"/>
      <point x="126" y="463"/>
      <point x="93" y="496"/>
      <point x="93" y="536" type="curve" smooth="yes"/>
      <point x="93" y="577"/>
      <point x="126" y="610"/>
      <point x="166" y="610" type="curve" smooth="yes"/>
      <point x="207" y="610"/>
      <point x="240" y="577"/>
      <point x="240" y="536" type="curve" smooth="yes"/>
      <point x="240" y="496"/>
      <point x="207" y="463"/>
    </contour>
  </outline>
</glyph>
<glyph name="micro" format="2">
  <advance width="564"/>
  <unicode hex="00B5"/>
  <outline>
    <contour>
      <point x="72" y="-198" type="line"/>
      <point x="147" y="-198" type="line"/>
      <point x="147" y="46" type="line"/>
      <point x="180" y="10"/>
      <point x="225" y="-8"/>
      <point x="276" y="-8" type="curve" smooth="yes"/>
      <point x="357" y="-8"/>
      <point x="402" y="30"/>
      <point x="438" y="78" type="curve"/>
      <point x="438" y="0" type="line"/>
      <point x="513" y="0" type="line"/>
      <point x="513" y="500" type="line"/>
      <point x="438" y="500" type="line"/>
      <point x="438" y="212" type="line" smooth="yes"/>
      <point x="438" y="122"/>
      <point x="370" y="60"/>
      <point x="287" y="60" type="curve" smooth="yes"/>
      <point x="205" y="60"/>
      <point x="147" y="120"/>
      <point x="147" y="211" type="curve" smooth="yes"/>
      <point x="147" y="500" type="line"/>
      <point x="72" y="500" type="line"/>
    </contour>
  </outline>
</glyph>
<glyph name="paragraph" format="2">
  <advance width="565"/>
  <unicode hex="00B6"/>
  <outline>
    <contour>
      <point x="276" y="-141" type="line"/>
      <point x="335" y="-141" type="line"/>
      <point x="335" y="616" type="line"/>
      <point x="407" y="616" type="line"/>
      <point x="407" y="-141" type="line"/>
      <point x="466" y="-141" type="line"/>
      <point x="466" y="616" type="line"/>
      <point x="509" y="616" type="line"/>
      <point x="509" y="670" type="line"/>
      <point x="203" y="670" type="line" smooth="yes"/>
      <point x="110" y="670"/>
      <point x="36" y="595"/>
      <point x="36" y="502" type="curve" smooth="yes"/>
      <point x="36" y="409"/>
      <point x="110" y="335"/>
      <point x="203" y="335" type="curve" smooth="yes"/>
      <point x="276" y="335" type="line"/>
    </contour>
  </outline>
</glyph>
<glyph name="cedilla" format="2">
  <advance width="300"/>
  <unicode hex="00B8"/>
  <outline>
    <contour>
      <point x="151" y="-206" type="curve" smooth="yes"/>
      <point x="212" y="-206"/>
      <point x="265" y="-181"/>
      <point x="265" y="-125" type="curve" smooth="yes"/>
      <point x="265" y="-77"/>
      <point x="223" y="-48"/>
      <point x="173" y="-48" type="curve" smooth="yes"/>
      <point x="166" y="-48"/>
      <point x="157" y="-49"/>
      <point x="151" y="-50" type="curve"/>
      <point x="195" y="27" type="line"/>
      <point x="152" y="27" type="line"/>
      <point x="83" y="-81" type="line"/>
      <point x="104" y="-98" type="line"/>
      <point x="114" y="-95"/>
      <point x="127" y="-93"/>
      <point x="139" y="-93" type="curve" smooth="yes"/>
      <point x="167" y="-93"/>
      <point x="192" y="-106"/>
      <point x="192" y="-126" type="curve" smooth="yes"/>
      <point x="192" y="-153"/>
      <point x="167" y="-162"/>
      <point x="137" y="-162" type="curve" smooth="yes"/>
      <point x="101" y="-162"/>
      <point x="73" y="-147"/>
      <point x="52" y="-132" type="curve"/>
      <point x="33" y="-165" type="line"/>
      <point x="58" y="-186"/>
      <point x="100" y="-206"/>
    </contour>
  </outline>
</glyph>
<glyph name="Ccedilla" format="2">
  <advance width="690"/>
  <unicode hex="00C7"/>
  <anchor x="345" y="0" name="bottom"/>
  <anchor x="345" y="662" name="top"/>
  <outline>
    <contour>
      <point x="365" y="65" type="curve" smooth="yes"/>
      <point x="204" y="65"/>
      <point x="114" y="182"/>
      <point x="114" y="331" type="curve" smooth="yes"/>
      <point x="114" y="480"/>
      <point x="204" y="597"/>
      <point x="365" y="597" type="curve" smooth="yes"/>
      <point x="474" y="597"/>
      <point x="546" y="545"/>
      <point x="580" y="464" type="curve"/>
      <point x="659" y="464" type="line"/>
      <point x="617" y="585"/>
      <point x="509" y="670"/>
      <point x="359" y="670" type="curve" smooth="yes"/>
      <point x="160" y="670"/>
      <point x="39" y="519"/>
      <point x="39" y="331" type="curve" smooth="yes"/>
      <point x="39" y="153"/>
      <point x="147" y="8"/>
      <point x="327" y="-7" type="curve"/>
      <point x="280" y="-81" type="line"/>
      <point x="301" y="-98" type="line"/>
      <point x="311" y="-95"/>
      <point x="324" y="-93"/>
      <point x="336" y="-93" type="curve" smooth="yes"/>
      <point x="364" y="-93"/>
      <point x="389" y="-106"/>
      <point x="389" y="-126" type="curve" smooth="yes"/>
      <point x="389" y="-153"/>
      <point x="364" y="-162"/>
      <point x="334" y="-162" type="curve" smooth="yes"/>
      <point x="298" y="-162"/>
      <point x="270" y="-147"/>
      <point x="249" y="-132" type="curve"/>
      <point x="230" y="-165" type="line"/>
      <point x="255" y="-186"/>
      <point x="297" y="-206"/>
      <point x="348" y="-206" type="curve" smooth="yes"/>
      <point x="409" y="-206"/>
      <point x="462" y="-181"/>
      <point x="462" y="-125" type="curve" smooth="yes"/>
      <point x="462" y="-77"/>
      <point x="420" y="-48"/>
      <point x="370" y="-48" type="curve" smooth="yes"/>
      <point x="363" y="-48"/>
      <point x="354" y="-49"/>
      <point x="348" y="-50" type="curve"/>
      <point x="372" y="-8" type="line"/>
      <point x="515" y="-3"/>
      <point x="618" y="81"/>
      <point x="659" y="198" type="curve"/>
      <point x="580" y="198" type="line"/>
      <point x="546" y="117"/>
      <point x="474" y="65"/>
    </contour>
  </outline>
</glyph>
<glyph name="multiply" format="2">
  <advance width="550"/>
  <unicode hex="00D7"/>
  <outline>
    <contour>
      <point x="122" y="54" type="line"/>
      <point x="275" y="208" type="line"/>
      <point x="429" y="54" type="line"/>
      <point x="478" y="104" type="line"/>
      <point x="325" y="257" type="line"/>
      <point x="478" y="411" type="line"/>
      <point x="429" y="460" type="line"/>
      <point x="275" y="307" type="line"/>
      <point x="122" y="460" type="line"/>
      <point x="72" y="411" type="line"/>
      <point x="226" y="257" type="line"/>
      <point x="72" y="104" type="line"/>
    </contour>
  </outline>
</glyph>
<glyph name="germandbls" format="2">
  <advance width="557"/>
  <unicode hex="00DF"/>
  <outline>
    <contour>
      <point x="65" y="0" type="line"/>
      <point x="140" y="0" type="line"/>
      <point x="140" y="510" type="line" smooth="yes"/>
      <point x="140" y="613"/>
      <point x="198" y="641"/>
      <point x="278" y="641" type="curve" smooth="yes"/>
      <point x="370" y="641"/>
      <point x="414" y="592"/>
      <point x="414" y="509" type="curve" smooth="yes"/>
      <point x="414" y="427"/>
      <point x="343" y="379"/>
      <point x="253" y="379" type="curve"/>
      <point x="253" y="324" type="line"/>
      <point x="377" y="324"/>
      <point x="447" y="268"/>
      <point x="447" y="186" type="curve" smooth="yes"/>
      <point x="447" y="103"/>
      <point x="385" y="66"/>
      <point x="294" y="66" type="curve" smooth="yes"/>
      <point x="205" y="66" type="line"/>
      <point x="205" y="0" type="line"/>
      <point x="293" y="0" type="line" smooth="yes"/>
      <point x="435" y="0"/>
      <point x="523" y="63"/>
      <point x="523" y="175" type="curve" smooth="yes"/>
      <point x="523" y="294"/>
      <point x="439" y="343"/>
      <point x="381" y="357" type="curve"/>
      <point x="431" y="374"/>
      <point x="489" y="415"/>
      <point x="489" y="518" type="curve" smooth="yes"/>
      <point x="489" y="654"/>
      <point x="389" y="708"/>
      <point x="279" y="708" type="curve" smooth="yes"/>
      <point x="145" y="708"/>
      <point x="65" y="635"/>
      <point x="65" y="514" type="curve" smooth="yes"/>
    </contour>
  </outline>
</glyph>
<glyph name="eth" format="2">
  <advance width="563"/>
  <unicode hex="00F0"/>
  <outline>
    <contour>
      <point x="286" y="-8" type="curve" smooth="yes"/>
      <point x="440" y="-8"/>
      <point x="530" y="128"/>
      <point x="530" y="269" type="curve" smooth="yes"/>
      <point x="530" y="441"/>
      <point x="449" y="540"/>
      <point x="342" y="625" type="curve"/>
      <point x="407" y="668" type="line"/>
      <point x="375" y="706" type="line"/>
      <point x="300" y="656" type="line"/>
      <point x="267" y="678"/>
      <point x="232" y="698"/>
      <point x="196" y="715" type="curve"/>
      <point x="169" y="644" type="line"/>
      <point x="191" y="634"/>
      <point x="212" y="623"/>
      <point x="233" y="611" type="curve"/>
      <point x="190" y="583" type="line"/>
      <point x="222" y="545" type="line"/>
      <point x="278" y="582" type="line"/>
      <point x="323" y="551"/>
      <point x="378" y="516"/>
      <point x="409" y="455" type="curve"/>
      <point x="375" y="492"/>
      <point x="326" y="514"/>
      <point x="263" y="514" type="curve" smooth="yes"/>
      <point x="122" y="514"/>
      <point x="34" y="397"/>
      <point x="34" y="253" type="curve" smooth="yes"/>
      <point x="34" y="112"/>
      <point x="121" y="-8"/>
    </contour>
    <contour>
      <point x="282" y="59" type="curve" smooth="yes"/>
      <point x="171" y="59"/>
      <point x="109" y="151"/>
      <point x="109" y="253" type="curve" smooth="yes"/>
      <point x="109" y="358"/>
      <point x="167" y="447"/>
      <point x="274" y="447" type="curve" smooth="yes"/>
      <point x="385" y="447"/>
      <point x="455" y="355"/>
      <point x="455" y="253" type="curve" smooth="yes"/>
      <point x="455" y="151"/>
      <point x="393" y="59"/>
    </contour>
  </outline>
</glyph>
<glyph name="dcroat" format="2">
  <advance width="595"/>
  <unicode hex="0111"/>
  <anchor x="298" y="0" name="bottom"/>
  <anchor x="298" y="250" name="center"/>
  <anchor x="282" y="500" name="top"/>
  <anchor x="575" y="500" name="topright"/>
  <outline>
    <contour>
      <point x="335" y="550" type="line"/>
      <point x="580" y="550" type="line"/>
      <point x="580" y="616" type="line"/>
      <point x="335" y="616" type="line"/>
    </contour>
    <component base="d"/>
  </outline>
</glyph>
<glyph name="hbar" format="2">
  <advance width="566"/>
  <unicode hex="0127"/>
  <anchor x="192" y="591" name="_center"/>
  <anchor x="283" y="0" name="bottom"/>
  <anchor x="112" y="574" name="center"/>
  <anchor x="102" y="700" name="top"/>
  <outline>
    <contour>
      <point x="15" y="546" type="line"/>
      <point x="260" y="546" type="line"/>
      <point x="260" y="616" type="line"/>
      <point x="15" y="616" type="line"/>
    </contour>
    <component base="h"/>
  </outline>
</glyph>
<glyph name="idotless" format="2">
  <advance width="205"/>
  <unicode hex="0131"/>
  <anchor x="103" y="0" name="bottom"/>
  <anchor x="149" y="0" name="ogonek"/>
  <anchor x="103" y="500" name="top"/>
  <outline>
    <contour>
      <point x="65" y="0" type="line"/>
      <point x="140" y="0" type="line"/>
      <point x="140" y="500" type="line"/>
      <point x="65" y="500" type="line"/>
    </contour>
  </outline>
</glyph>
<glyph name="Lslash" format="2">
  <advance width="533"/>
  <unicode hex="0141"/>
  <anchor x="287" y="0" name="bottom"/>
  <anchor x="267" y="331" name="center"/>
  <anchor x="119" y="662" name="top"/>
  <anchor x="406" y="464" name="topright"/>
  <outline>
    <contour>
      <point x="341" y="502" type="line"/>
      <point x="7" y="328" type="line"/>
      <point x="7" y="255" type="line"/>
      <point x="341" y="429" type="line"/>
    </contour>
    <component base="L"/>
  </outline>
</glyph>
<glyph name="Eng" format="2">
  <advance width="658"/>
  <unicode hex="014A"/>
  <anchor x="375" y="0" name="bottom"/>
  <anchor x="375" y="660" name="top"/>
  <outline>
    <contour>
      <point x="81" y="0" type="line"/>
      <point x="156" y="0" type="line"/>
      <point x="156" y="452" type="line" smooth="yes"/>
      <point x="156" y="550"/>
      <point x="241" y="598"/>
      <point x="327" y="598" type="curve" smooth="yes"/>
      <point x="414" y="598"/>
      <point x="502" y="561"/>
      <point x="502" y="450" type="curve" smooth="yes"/>
      <point x="502" y="-21" type="line"/>
      <point x="577" y="-21" type="line"/>
      <point x="577" y="452" type="line" smooth="yes"/>
      <point x="577" y="604"/>
      <point x="464" y="671"/>
      <point x="347" y="671" type="curve" smooth="yes"/>
      <point x="277" y="671"/>
      <point x="204" y="643"/>
      <point x="156" y="583" type="curve"/>
      <point x="156" y="661" type="line"/>
      <point x="81" y="661" type="line"/>
    </contour>
    <contour>
      <point x="399" y="-206" type="curve" smooth="yes"/>
      <point x="532" y="-206"/>
      <point x="577" y="-111"/>
      <point x="577" y="-16" type="curve" smooth="yes"/>
      <point x="577" y="464" type="line"/>
      <point x="502" y="464" type="line"/>
      <point x="502" y="-13" type="line" smooth="yes"/>
      <point x="502" y="-64"/>
      <point x="490" y="-133"/>
      <point x="399" y="-133" type="curve" smooth="yes"/>
      <point x="336" y="-133"/>
      <point x="304" y="-84"/>
      <point x="298" y="-41" type="curve"/>
      <point x="220" y="-41" type="line"/>
      <point x="227" y="-121"/>
      <point x="286" y="-206"/>
    </contour>
  </outline>
</glyph>
<glyph name="eng" format="2">
  <advance width="568"/>
  <unicode hex="014B"/>
  <anchor x="469" y="-198" name="bottom"/>
  <anchor x="469" y="500" name="top"/>
  <outline>
    <contour>
      <point x="350" y="-206" type="curve" smooth="yes"/>
      <point x="465" y="-206"/>
      <point x="506" y="-128"/>
      <point x="506" y="-50" type="curve" smooth="yes"/>
      <point x="506" y="97" type="line"/>
      <point x="431" y="97" type="line"/>
      <point x="431" y="-47" type="line" smooth="yes"/>
      <point x="431" y="-84"/>
      <point x="418" y="-139"/>
      <point x="352" y="-139" type="curve" smooth="yes"/>
      <point x="303" y="-139"/>
      <point x="275" y="-92"/>
      <point x="270" y="-55" type="curve"/>
      <point x="195" y="-55" type="line"/>
      <point x="200" y="-128"/>
      <point x="252" y="-206"/>
    </contour>
    <component base="n"/>
  </outline>
</glyph>
<glyph name="OE" format="2">
  <advance width="1144"/>
  <unicode hex="0152"/>
  <outline>
    <contour>
      <point x="365" y="-8" type="curve" smooth="yes"/>
      <point x="475" y="-8"/>
      <point x="558" y="37"/>
      <point x="612" y="108" type="curve"/>
      <point x="612" y="0" type="line"/>
      <point x="1104" y="0" type="line"/>
      <point x="1104" y="72" type="line"/>
      <point x="687" y="72" type="line"/>
      <point x="687" y="294" type="line"/>
      <point x="1060" y="294" type="line"/>
      <point x="1060" y="367" type="line"/>
      <point x="687" y="367" type="line"/>
      <point x="687" y="590" type="line"/>
      <point x="1104" y="590" type="line"/>
      <point x="1104" y="662" type="line"/>
      <point x="612" y="662" type="line"/>
      <point x="612" y="553" type="line"/>
      <point x="558" y="625"/>
      <point x="475" y="670"/>
      <point x="365" y="670" type="curve" smooth="yes"/>
      <point x="164" y="670"/>
      <point x="39" y="519"/>
      <point x="39" y="331" type="curve" smooth="yes"/>
      <point x="39" y="143"/>
      <point x="164" y="-8"/>
    </contour>
    <contour>
      <point x="365" y="65" type="curve" smooth="yes"/>
      <point x="204" y="65"/>
      <point x="114" y="182"/>
      <point x="114" y="331" type="curve" smooth="yes"/>
      <point x="114" y="480"/>
      <point x="204" y="597"/>
      <point x="365" y="597" type="curve" smooth="yes"/>
      <point x="526" y="597"/>
      <point x="616" y="480"/>
      <point x="616" y="331" type="curve" smooth="yes"/>
      <point x="616" y="182"/>
      <point x="526" y="65"/>
    </contour>
  </outline>
</glyph>
<glyph name="tbar" format="2">
  <advance width="326"/>
  <unicode hex="0167"/>
  <anchor x="156" y="0" name="bottom"/>
  <anchor x="163" y="250" name="center"/>
  <anchor x="157" y="679" name="top"/>
  <anchor x="306" y="500" name="topright"/>
  <outline>
    <contour>
      <point x="280" y="308" type="line"/>
      <point x="33" y="308" type="line"/>
      <point x="33" y="243" type="line"/>
      <point x="280" y="243" type="line"/>
    </contour>
    <component base="t"/>
  </outline>
</glyph>
<glyph name="bstroke" format="2">
  <advance width="594"/>
  <unicode hex="0180"/>
  <anchor x="297" y="0" name="bottom"/>
  <anchor x="312" y="500" name="top"/>
  <outline>
    <contour>
      <point x="355" y="623" type="line"/>
      <point x="7" y="623" type="line"/>
      <point x="7" y="558" type="line"/>
      <point x="355" y="558" type="line"/>
    </contour>
    <component base="b"/>
  </outline>
</glyph>
<glyph name="Fhook" format="2">
  <advance width="583"/>
  <unicode hex="0191"/>
  <anchor x="153" y="243" name="_bottom"/>
  <anchor x="292" y="0" name="bottom"/>
  <anchor x="292" y="662" name="top"/>
  <outline>
    <contour>
      <point x="81" y="0" type="line"/>
      <point x="81" y="-105"/>
      <point x="38" y="-137"/>
      <point x="-30" y="-137" type="curve" smooth="yes"/>
      <point x="-45" y="-137"/>
      <point x="-60" y="-136"/>
      <point x="-76" y="-133" type="curve"/>
      <point x="-76" y="-201" type="line"/>
      <point x="-57" y="-205"/>
      <point x="-38" y="-206"/>
      <point x="-21" y="-206" type="curve" smooth="yes"/>
      <point x="80" y="-206"/>
      <point x="156" y="-143"/>
      <point x="156" y="-19" type="curve" smooth="yes"/>
      <point x="156" y="0" type="line"/>
    </contour>
    <component base="F"/>
  </outline>
</glyph>
<glyph name="Ghook" format="2">
  <advance width="723"/>
  <unicode hex="0193"/>
  <anchor x="362" y="0" name="bottom"/>
  <anchor x="362" y="662" name="top"/>
  <outline>
    <contour>
      <point x="361" y="352" type="line"/>
      <point x="361" y="284" type="line"/>
      <point x="603" y="284" type="line"/>
      <point x="603" y="146"/>
      <point x="489" y="65"/>
      <point x="369" y="65" type="curve" smooth="yes"/>
      <point x="208" y="65"/>
      <point x="114" y="182"/>
      <point x="114" y="331" type="curve" smooth="yes"/>
      <point x="114" y="479"/>
      <point x="209" y="597"/>
      <point x="368" y="597" type="curve" smooth="yes"/>
      <point x="475" y="597"/>
      <point x="549" y="544"/>
      <point x="583" y="464" type="curve"/>
      <point x="659" y="464" type="line"/>
      <point x="618" y="583"/>
      <point x="512" y="670"/>
      <point x="365" y="670" type="curve" smooth="yes"/>
      <point x="362" y="670" type="line"/>
      <point x="359" y="670" type="line" smooth="yes"/>
      <point x="163" y="670"/>
      <point x="39" y="517"/>
      <point x="39" y="331" type="curve" smooth="yes"/>
      <point x="39" y="143"/>
      <point x="161" y="-8"/>
      <point x="363" y="-8" type="curve" smooth="yes"/>
      <point x="483" y="-8"/>
      <point x="561" y="53"/>
      <point x="603" y="117" type="curve"/>
      <point x="603" y="0" type="line"/>
      <point x="672" y="0" type="line"/>
      <point x="672" y="352" type="line"/>
    </contour>
    <contour>
      <point x="729" y="789" type="curve" smooth="yes"/>
      <point x="604" y="789"/>
      <point x="584" y="710"/>
      <point x="584" y="645" type="curve" smooth="yes"/>
      <point x="584" y="464" type="line"/>
      <point x="659" y="464" type="line"/>
      <point x="659" y="645" type="line" smooth="yes"/>
      <point x="659" y="678"/>
      <point x="663" y="722"/>
      <point x="735" y="722" type="curve" smooth="yes"/>
      <point x="743" y="722"/>
      <point x="750" y="721"/>
      <point x="759" y="719" type="curve"/>
      <point x="759" y="787" type="line"/>
      <point x="748" y="788"/>
      <point x="739" y="789"/>
    </contour>
  </outline>
</glyph>
<glyph name="Khook" format="2">
  <advance width="641"/>
  <unicode hex="0198"/>
  <anchor x="321" y="0" name="bottom"/>
  <anchor x="321" y="662" name="top"/>
  <outline>
    <contour>
      <point x="425" y="506" type="line" smooth="yes"/>
      <point x="469" y="553"/>
      <point x="507" y="597"/>
      <point x="543" y="597" type="curve" smooth="yes"/>
      <point x="587" y="597"/>
      <point x="593" y="562"/>
      <point x="597" y="527" type="curve"/>
      <point x="661" y="541" type="line"/>
      <point x="661" y="624"/>
      <point x="618" y="670"/>
      <point x="543" y="670" type="curve" smooth="yes"/>
      <point x="482" y="670"/>
      <point x="440" y="630"/>
      <point x="374" y="557" type="curve" smooth="yes"/>
      <point x="156" y="317" type="line"/>
      <point x="156" y="662" type="line"/>
      <point x="81" y="662" type="line"/>
      <point x="81" y="0" type="line"/>
      <point x="156" y="0" type="line"/>
      <point x="156" y="217" type="line"/>
      <point x="285" y="355" type="line"/>
      <point x="552" y="0" type="line"/>
      <point x="646" y="0" type="line"/>
      <point x="337" y="411" type="line"/>
    </contour>
  </outline>
</glyph>
<glyph name="khook" format="2">
  <advance width="502"/>
  <unicode hex="0199"/>
  <anchor x="251" y="0" name="bottom"/>
  <anchor x="251" y="700" name="top"/>
  <outline>
    <contour>
      <point x="285" y="303" type="line"/>
      <point x="486" y="500" type="line"/>
      <point x="381" y="500" type="line"/>
      <point x="140" y="252" type="line"/>
      <point x="140" y="564" type="line" smooth="yes"/>
      <point x="140" y="597"/>
      <point x="144" y="641"/>
      <point x="216" y="641" type="curve" smooth="yes"/>
      <point x="224" y="641"/>
      <point x="231" y="640"/>
      <point x="240" y="638" type="curve"/>
      <point x="240" y="706" type="line"/>
      <point x="229" y="707"/>
      <point x="220" y="708"/>
      <point x="210" y="708" type="curve" smooth="yes"/>
      <point x="85" y="708"/>
      <point x="65" y="629"/>
      <point x="65" y="564" type="curve" smooth="yes"/>
      <point x="65" y="0" type="line"/>
      <point x="140" y="0" type="line"/>
      <point x="140" y="158" type="line"/>
      <point x="234" y="251" type="line"/>
      <point x="409" y="0" type="line"/>
      <point x="501" y="0" type="line"/>
    </contour>
  </outline>
</glyph>
<glyph name="Mturned" format="2">
  <advance width="905"/>
  <unicode hex="019C"/>
  <anchor x="450" y="162" name="bottom"/>
  <anchor x="450" y="662" name="top"/>
  <outline>
    <contour>
      <point x="824" y="662" type="line"/>
      <point x="749" y="662" type="line"/>
      <point x="749" y="193" type="line" smooth="yes"/>
      <point x="749" y="104"/>
      <point x="688" y="52"/>
      <point x="614" y="52" type="curve" smooth="yes"/>
      <point x="544" y="52"/>
      <point x="490" y="108"/>
      <point x="490" y="192" type="curve" smooth="yes"/>
      <point x="490" y="662" type="line"/>
      <point x="415" y="662" type="line"/>
      <point x="415" y="193" type="line" smooth="yes"/>
      <point x="415" y="104"/>
      <point x="354" y="52"/>
      <point x="280" y="52" type="curve" smooth="yes"/>
      <point x="210" y="52"/>
      <point x="156" y="108"/>
      <point x="156" y="192" type="curve" smooth="yes"/>
      <point x="156" y="662" type="line"/>
      <point x="81" y="662" type="line"/>
      <point x="81" y="190" type="line" smooth="yes"/>
      <point x="81" y="64"/>
      <point x="170" y="-16"/>
      <point x="266" y="-16" type="curve" smooth="yes"/>
      <point x="365" y="-16"/>
      <point x="418" y="51"/>
      <point x="438" y="85" type="curve"/>
      <point x="470" y="21"/>
      <point x="531" y="-16"/>
      <point x="597" y="-16" type="curve" smooth="yes"/>
      <point x="678" y="-16"/>
      <point x="726" y="28"/>
      <point x="749" y="68" type="curve"/>
      <point x="749" y="-8" type="line"/>
      <point x="824" y="-8" type="line"/>
    </contour>
  </outline>
</glyph>
<glyph name="Nhookleft" format="2">
  <advance width="639"/>
  <unicode hex="019D"/>
  <anchor x="292" y="0" name="_bottom"/>
  <outline>
    <contour>
      <point x="81" y="0" type="line"/>
      <point x="81" y="-105"/>
      <point x="38" y="-137"/>
      <point x="-30" y="-137" type="curve" smooth="yes"/>
      <point x="-45" y="-137"/>
      <point x="-60" y="-136"/>
      <point x="-76" y="-133" type="curve"/>
      <point x="-76" y="-201" type="line"/>
      <point x="-57" y="-205"/>
      <point x="-38" y="-206"/>
      <point x="-21" y="-206" type="curve" smooth="yes"/>
      <point x="80" y="-206"/>
      <point x="156" y="-143"/>
      <point x="156" y="-19" type="curve" smooth="yes"/>
      <point x="156" y="0" type="line"/>
    </contour>
    <contour>
      <point x="81" y="0" type="line"/>
      <point x="156" y="0" type="line"/>
      <point x="156" y="452" type="line" smooth="yes"/>
      <point x="156" y="550"/>
      <point x="241" y="598"/>
      <point x="327" y="598" type="curve" smooth="yes"/>
      <point x="414" y="598"/>
      <point x="502" y="561"/>
      <point x="502" y="450" type="curve" smooth="yes"/>
      <point x="502" y="-21" type="line"/>
      <point x="577" y="-21" type="line"/>
      <point x="577" y="452" type="line" smooth="yes"/>
      <point x="577" y="604"/>
      <point x="464" y="671"/>
      <point x="347" y="671" type="curve" smooth="yes"/>
      <point x="277" y="671"/>
      <point x="204" y="643"/>
      <point x="156" y="583" type="curve"/>
      <point x="156" y="661" type="line"/>
      <point x="81" y="661" type="line"/>
    </contour>
  </outline>
</glyph>
<glyph name="Ocenteredtilde" format="2">
  <advance width="750"/>
  <unicode hex="019F"/>
  <anchor x="375" y="0" name="bottom"/>
  <anchor x="375" y="331" name="center"/>
  <anchor x="455" y="0" name="ogonek"/>
  <anchor x="375" y="662" name="top"/>
  <anchor x="20" y="662" name="topleft"/>
  <anchor x="534" y="662" name="topright"/>
  <outline>
    <contour>
      <point x="658" y="363" type="line"/>
      <point x="70" y="363" type="line"/>
      <point x="70" y="298" type="line"/>
      <point x="658" y="298" type="line"/>
    </contour>
    <component base="O"/>
  </outline>
</glyph>
<glyph name="ohorn" format="2">
  <advance width="564"/>
  <unicode hex="01A1"/>
  <anchor x="282" y="0" name="bottom"/>
  <anchor x="282" y="250" name="center"/>
  <anchor x="368" y="0" name="ogonek"/>
  <anchor x="282" y="500" name="top"/>
  <anchor x="544" y="500" name="topright"/>
  <outline>
    <contour>
      <point x="427" y="465" type="curve"/>
      <point x="464" y="494"/>
      <point x="486" y="546"/>
      <point x="486" y="616" type="curve"/>
      <point x="416" y="616" type="line"/>
      <point x="416" y="541"/>
      <point x="382" y="508"/>
      <point x="332" y="508" type="curve" smooth="yes"/>
      <point x="282" y="508" type="line" smooth="yes"/>
      <point x="129" y="508"/>
      <point x="34" y="393"/>
      <point x="34" y="250" type="curve" smooth="yes"/>
      <point x="34" y="107"/>
      <point x="129" y="-8"/>
      <point x="282" y="-8" type="curve" smooth="yes"/>
      <point x="435" y="-8"/>
      <point x="530" y="107"/>
      <point x="530" y="250" type="curve" smooth="yes"/>
      <point x="530" y="340"/>
      <point x="493" y="419"/>
    </contour>
    <contour>
      <point x="282" y="60" type="curve" smooth="yes"/>
      <point x="171" y="60"/>
      <point x="109" y="147"/>
      <point x="109" y="250" type="curve" smooth="yes"/>
      <point x="109" y="353"/>
      <point x="171" y="440"/>
      <point x="282" y="440" type="curve" smooth="yes"/>
      <point x="393" y="440"/>
      <point x="455" y="353"/>
      <point x="455" y="250" type="curve" smooth="yes"/>
      <point x="455" y="147"/>
      <point x="393" y="60"/>
    </contour>
  </outline>
</glyph>
<glyph name="phook" format="2">
  <advance width="595"/>
  <unicode hex="01A5"/>
  <anchor x="-175" y="581" name="_top"/>
  <anchor x="297" y="0" name="bottom"/>
  <anchor x="297" y="500" name="top"/>
  <outline>
    <contour>
      <point x="210" y="708" type="curve" smooth="yes"/>
      <point x="85" y="708"/>
      <point x="65" y="629"/>
      <point x="65" y="564" type="curve" smooth="yes"/>
      <point x="65" y="383" type="line"/>
      <point x="140" y="383" type="line"/>
      <point x="140" y="564" type="line" smooth="yes"/>
      <point x="140" y="597"/>
      <point x="144" y="641"/>
      <point x="216" y="641" type="curve" smooth="yes"/>
      <point x="224" y="641"/>
      <point x="231" y="640"/>
      <point x="240" y="638" type="curve"/>
      <point x="240" y="706" type="line"/>
      <point x="229" y="707"/>
      <point x="220" y="708"/>
    </contour>
    <component base="p"/>
  </outline>
</glyph>
<glyph name="thook" format="2">
  <advance width="326"/>
  <unicode hex="01AD"/>
  <anchor x="156" y="0" name="bottom"/>
  <anchor x="163" y="250" name="center"/>
  <anchor x="157" y="679" name="top"/>
  <anchor x="306" y="500" name="topright"/>
  <outline>
    <contour>
      <point x="309" y="500" type="line"/>
      <point x="194" y="500" type="line"/>
      <point x="194" y="564" type="line" smooth="yes"/>
      <point x="194" y="597"/>
      <point x="198" y="641"/>
      <point x="270" y="641" type="curve" smooth="yes"/>
      <point x="278" y="641"/>
      <point x="285" y="640"/>
      <point x="294" y="638" type="curve"/>
      <point x="294" y="706" type="line"/>
      <point x="283" y="707"/>
      <point x="274" y="708"/>
      <point x="264" y="708" type="curve" smooth="yes"/>
      <point x="139" y="708"/>
      <point x="119" y="629"/>
      <point x="119" y="564" type="curve" smooth="yes"/>
      <point x="119" y="500" type="line"/>
      <point x="17" y="500" type="line"/>
      <point x="17" y="434" type="line"/>
      <point x="119" y="434" type="line"/>
      <point x="119" y="136" type="line"/>
      <point x="194" y="136" type="line"/>
      <point x="194" y="434" type="line"/>
      <point x="309" y="434" type="line"/>
    </contour>
    <contour>
      <point x="194" y="136" type="curve"/>
      <point x="119" y="136" type="line"/>
      <point x="119" y="71"/>
      <point x="139" y="-8"/>
      <point x="264" y="-8" type="curve" smooth="yes"/>
      <point x="274" y="-8"/>
      <point x="283" y="-7"/>
      <point x="294" y="-6" type="curve"/>
      <point x="294" y="62" type="line"/>
      <point x="285" y="60"/>
      <point x="278" y="59"/>
      <point x="270" y="59" type="curve" smooth="yes"/>
      <point x="198" y="59"/>
      <point x="194" y="103"/>
    </contour>
  </outline>
</glyph>
<glyph name="Tretroflexhook" format="2">
  <advance width="565"/>
  <unicode hex="01AE"/>
  <anchor x="120" y="0" name="_bottom"/>
  <anchor x="283" y="0" name="bottom"/>
  <anchor x="283" y="331" name="center"/>
  <anchor x="283" y="662" name="top"/>
  <outline>
    <contour>
      <point x="320" y="0" type="curve"/>
      <point x="245" y="0" type="line"/>
      <point x="245" y="-19" type="line" smooth="yes"/>
      <point x="245" y="-143"/>
      <point x="321" y="-206"/>
      <point x="422" y="-206" type="curve" smooth="yes"/>
      <point x="439" y="-206"/>
      <point x="458" y="-205"/>
      <point x="477" y="-201" type="curve"/>
      <point x="477" y="-133" type="line"/>
      <point x="461" y="-136"/>
      <point x="446" y="-137"/>
      <point x="431" y="-137" type="curve" smooth="yes"/>
      <point x="363" y="-137"/>
      <point x="320" y="-105"/>
    </contour>
    <component base="T"/>
  </outline>
</glyph>
<glyph name="Upsilonafrican" format="2">
  <advance width="746"/>
  <unicode hex="01B1"/>
  <anchor x="373" y="0" name="bottom"/>
  <anchor x="373" y="662" name="top"/>
  <outline>
    <contour>
      <point x="500" y="590" type="curve"/>
      <point x="661" y="590" type="line"/>
      <point x="661" y="662" type="line"/>
      <point x="430" y="662" type="line"/>
      <point x="430" y="562" type="line"/>
      <point x="550" y="537"/>
      <point x="616" y="442"/>
      <point x="616" y="308" type="curve" smooth="yes"/>
      <point x="616" y="148"/>
      <point x="495" y="64"/>
      <point x="373" y="64" type="curve" smooth="yes"/>
      <point x="252" y="64"/>
      <point x="130" y="148"/>
      <point x="130" y="308" type="curve" smooth="yes"/>
      <point x="130" y="442"/>
      <point x="196" y="537"/>
      <point x="316" y="562" type="curve"/>
      <point x="316" y="662" type="line"/>
      <point x="85" y="662" type="line"/>
      <point x="85" y="590" type="line"/>
      <point x="246" y="590" type="line"/>
      <point x="114" y="550"/>
      <point x="55" y="434"/>
      <point x="55" y="304" type="curve" smooth="yes"/>
      <point x="55" y="150"/>
      <point x="152" y="-8"/>
      <point x="373" y="-8" type="curve" smooth="yes"/>
      <point x="594" y="-8"/>
      <point x="691" y="150"/>
      <point x="691" y="304" type="curve" smooth="yes"/>
      <point x="691" y="434"/>
      <point x="632" y="550"/>
    </contour>
  </outline>
</glyph>
<glyph name="Yhook" format="2">
  <advance width="722"/>
  <unicode hex="01B3"/>
  <anchor x="319" y="0" name="bottom"/>
  <anchor x="319" y="662" name="top"/>
  <anchor x="24" y="662" name="topleft"/>
  <outline>
    <contour>
      <point x="631" y="670" type="curve" smooth="yes"/>
      <point x="557" y="670"/>
      <point x="519" y="629"/>
      <point x="457" y="538" type="curve" smooth="yes"/>
      <point x="318" y="340" type="line"/>
      <point x="94" y="662" type="line"/>
      <point x="3" y="662" type="line"/>
      <point x="281" y="262" type="line"/>
      <point x="281" y="0" type="line"/>
      <point x="356" y="0" type="line"/>
      <point x="356" y="262" type="line"/>
      <point x="514" y="495" type="line"/>
      <point x="545" y="545"/>
      <point x="589" y="597"/>
      <point x="628" y="597" type="curve" smooth="yes"/>
      <point x="671" y="597"/>
      <point x="677" y="567"/>
      <point x="682" y="527" type="curve"/>
      <point x="742" y="541" type="line"/>
      <point x="742" y="635"/>
      <point x="692" y="670"/>
    </contour>
  </outline>
</glyph>
<glyph name="Zstroke" format="2">
  <advance width="584"/>
  <unicode hex="01B5"/>
  <anchor x="292.5" y="331" name="_center"/>
  <anchor x="292" y="0" name="bottom"/>
  <anchor x="292" y="331" name="center"/>
  <anchor x="292" y="662" name="top"/>
  <outline>
    <contour>
      <point x="81" y="299" type="line"/>
      <point x="504" y="299" type="line"/>
      <point x="504" y="364" type="line"/>
      <point x="81" y="364" type="line"/>
    </contour>
    <component base="Z"/>
  </outline>
</glyph>
<glyph name="zstroke" format="2">
  <advance width="458"/>
  <unicode hex="01B6"/>
  <anchor x="229" y="0" name="bottom"/>
  <anchor x="229" y="250" name="center"/>
  <anchor x="229" y="500" name="top"/>
  <outline>
    <contour>
      <point x="400" y="283" type="line"/>
      <point x="58" y="283" type="line"/>
      <point x="58" y="218" type="line"/>
      <point x="400" y="218" type="line"/>
    </contour>
    <component base="z"/>
  </outline>
</glyph>
<glyph name="Ezh" format="2">
  <advance width="586"/>
  <unicode hex="01B7"/>
  <anchor x="279" y="0" name="bottom"/>
  <anchor x="279" y="662" name="top"/>
  <outline>
    <contour>
      <point x="208" y="259" type="line"/>
      <point x="261" y="259" type="line"/>
      <point x="379" y="260"/>
      <point x="463" y="178"/>
      <point x="463" y="63" type="curve" smooth="yes"/>
      <point x="463" y="-52"/>
      <point x="383" y="-133"/>
      <point x="271" y="-133" type="curve" smooth="yes"/>
      <point x="193" y="-133"/>
      <point x="130" y="-91"/>
      <point x="101" y="-25" type="curve"/>
      <point x="21" y="-25" type="line"/>
      <point x="57" y="-133"/>
      <point x="152" y="-206"/>
      <point x="271" y="-206" type="curve" smooth="yes"/>
      <point x="424" y="-206"/>
      <point x="538" y="-91"/>
      <point x="538" y="63" type="curve" smooth="yes"/>
      <point x="538" y="216"/>
      <point x="420" y="332"/>
      <point x="261" y="332" type="curve"/>
    </contour>
    <contour>
      <point x="208" y="259" type="line"/>
      <point x="297" y="326" type="line"/>
      <point x="475" y="590" type="line"/>
      <point x="475" y="662" type="line"/>
      <point x="51" y="662" type="line"/>
      <point x="51" y="590" type="line"/>
      <point x="383" y="590" type="line"/>
      <point x="208" y="328" type="line"/>
    </contour>
  </outline>
</glyph>
<glyph name="clickdental" format="2">
  <advance width="247"/>
  <unicode hex="01C0"/>
  <outline>
    <contour>
      <point x="86" y="-198" type="line"/>
      <point x="161" y="-198" type="line"/>
      <point x="161" y="700" type="line"/>
      <point x="86" y="700" type="line"/>
    </contour>
  </outline>
</glyph>
<glyph name="gstroke" format="2">
  <advance width="595"/>
  <unicode hex="01E5"/>
  <anchor x="298" y="-198" name="bottom"/>
  <anchor x="298" y="500" name="top"/>
  <outline>
    <contour>
      <point x="591" y="-15" type="line"/>
      <point x="344" y="-15" type="line"/>
      <point x="344" y="-80" type="line"/>
      <point x="591" y="-80" type="line"/>
    </contour>
    <component base="g"/>
  </outline>
</glyph>
<glyph name="Oogonek" format="2">
  <advance width="750"/>
  <unicode hex="01EA"/>
  <anchor x="375" y="0" name="bottom"/>
  <anchor x="375" y="331" name="center"/>
  <anchor x="455" y="0" name="ogonek"/>
  <anchor x="375" y="662" name="top"/>
  <anchor x="20" y="662" name="topleft"/>
  <anchor x="534" y="662" name="topright"/>
  <outline>
    <contour>
      <point x="711" y="331" type="curve" smooth="yes"/>
      <point x="711" y="519"/>
      <point x="576" y="670"/>
      <point x="375" y="670" type="curve" smooth="yes"/>
      <point x="174" y="670"/>
      <point x="39" y="519"/>
      <point x="39" y="331" type="curve" smooth="yes"/>
      <point x="39" y="143"/>
      <point x="174" y="-8"/>
      <point x="375" y="-8" type="curve" smooth="yes"/>
      <point x="376" y="-8" type="line"/>
      <point x="331" y="-30"/>
      <point x="273" y="-63"/>
      <point x="273" y="-125" type="curve" smooth="yes"/>
      <point x="273" y="-180"/>
      <point x="321" y="-208"/>
      <point x="370" y="-208" type="curve" smooth="yes"/>
      <point x="398" y="-208"/>
      <point x="426" y="-200"/>
      <point x="446" y="-184" type="curve"/>
      <point x="446" y="-145" type="line"/>
      <point x="436" y="-152"/>
      <point x="423" y="-156"/>
      <point x="410" y="-156" type="curve" smooth="yes"/>
      <point x="380" y="-156"/>
      <point x="350" y="-138"/>
      <point x="350" y="-106" type="curve" smooth="yes"/>
      <point x="350" y="-56"/>
      <point x="418" y="-17"/>
      <point x="448" y="-1" type="curve"/>
      <point x="608" y="31"/>
      <point x="711" y="167"/>
    </contour>
    <contour>
      <point x="375" y="65" type="curve" smooth="yes"/>
      <point x="214" y="65"/>
      <point x="114" y="182"/>
      <point x="114" y="331" type="curve" smooth="yes"/>
      <point x="114" y="480"/>
      <point x="214" y="597"/>
      <point x="375" y="597" type="curve" smooth="yes"/>
      <point x="536" y="597"/>
      <point x="636" y="480"/>
      <point x="636" y="331" type="curve" smooth="yes"/>
      <point x="636" y="182"/>
      <point x="536" y="65"/>
    </contour>
  </outline>
</glyph>
<glyph name="oogonek" format="2">
  <advance width="564"/>
  <unicode hex="01EB"/>
  <anchor x="282" y="0" name="bottom"/>
  <anchor x="282" y="250" name="center"/>
  <anchor x="368" y="0" name="ogonek"/>
  <anchor x="282" y="500" name="top"/>
  <anchor x="544" y="500" name="topright"/>
  <outline>
    <contour>
      <point x="372" y="7" type="curve"/>
      <point x="471" y="43"/>
      <point x="530" y="138"/>
      <point x="530" y="250" type="curve" smooth="yes"/>
      <point x="530" y="393"/>
      <point x="435" y="508"/>
      <point x="282" y="508" type="curve" smooth="yes"/>
      <point x="129" y="508"/>
      <point x="34" y="393"/>
      <point x="34" y="250" type="curve" smooth="yes"/>
      <point x="34" y="107"/>
      <point x="129" y="-8"/>
      <point x="282" y="-8" type="curve" smooth="yes"/>
      <point x="285" y="-8" type="line"/>
      <point x="240" y="-30"/>
      <point x="186" y="-63"/>
      <point x="186" y="-123" type="curve" smooth="yes"/>
      <point x="186" y="-178"/>
      <point x="234" y="-206"/>
      <point x="283" y="-206" type="curve" smooth="yes"/>
      <point x="311" y="-206"/>
      <point x="339" y="-198"/>
      <point x="359" y="-182" type="curve"/>
      <point x="359" y="-143" type="line"/>
      <point x="349" y="-150"/>
      <point x="336" y="-154"/>
      <point x="323" y="-154" type="curve" smooth="yes"/>
      <point x="293" y="-154"/>
      <point x="263" y="-136"/>
      <point x="263" y="-104" type="curve" smooth="yes"/>
      <point x="263" y="-54"/>
      <point x="336" y="-11"/>
    </contour>
    <contour>
      <point x="109" y="250" type="curve" smooth="yes"/>
      <point x="109" y="353"/>
      <point x="171" y="440"/>
      <point x="282" y="440" type="curve" smooth="yes"/>
      <point x="393" y="440"/>
      <point x="455" y="353"/>
      <point x="455" y="250" type="curve" smooth="yes"/>
      <point x="455" y="147"/>
      <point x="393" y="60"/>
      <point x="282" y="60" type="curve" smooth="yes"/>
      <point x="171" y="60"/>
      <point x="109" y="147"/>
    </contour>
  </outline>
</glyph>
<glyph name="ou" format="2">
  <advance width="564"/>
  <unicode hex="0223"/>
  <anchor x="847" y="0" name="bottom"/>
  <anchor x="282" y="250" name="center"/>
  <anchor x="1075" y="0" name="ogonek"/>
  <anchor x="847" y="500" name="top"/>
  <anchor x="1222" y="493" name="topright"/>
  <outline>
    <contour>
      <point x="407" y="352" type="curve"/>
      <point x="457" y="378"/>
      <point x="492" y="422"/>
      <point x="492" y="484" type="curve" smooth="yes"/>
      <point x="492" y="700" type="line"/>
      <point x="417" y="700" type="line"/>
      <point x="417" y="486" type="line" smooth="yes"/>
      <point x="417" y="423"/>
      <point x="362" y="375"/>
      <point x="282" y="375" type="curve" smooth="yes"/>
      <point x="202" y="375"/>
      <point x="147" y="423"/>
      <point x="147" y="486" type="curve" smooth="yes"/>
      <point x="147" y="700" type="line"/>
      <point x="72" y="700" type="line"/>
      <point x="72" y="484" type="line" smooth="yes"/>
      <point x="72" y="422"/>
      <point x="107" y="378"/>
      <point x="158" y="352" type="curve"/>
      <point x="79" y="320"/>
      <point x="34" y="256"/>
      <point x="34" y="183" type="curve" smooth="yes"/>
      <point x="34" y="77"/>
      <point x="129" y="-8"/>
      <point x="282" y="-8" type="curve" smooth="yes"/>
      <point x="432" y="-8"/>
      <point x="530" y="77"/>
      <point x="530" y="183" type="curve" smooth="yes"/>
      <point x="530" y="259"/>
      <point x="485" y="321"/>
    </contour>
    <contour>
      <point x="282" y="62" type="curve" smooth="yes"/>
      <point x="171" y="62"/>
      <point x="109" y="118"/>
      <point x="109" y="183" type="curve" smooth="yes"/>
      <point x="109" y="249"/>
      <point x="171" y="304"/>
      <point x="282" y="304" type="curve" smooth="yes"/>
      <point x="393" y="304"/>
      <point x="455" y="249"/>
      <point x="455" y="183" type="curve" smooth="yes"/>
      <point x="455" y="118"/>
      <point x="393" y="62"/>
    </contour>
  </outline>
</glyph>
<glyph name="Ecedilla" format="2">
  <advance width="608"/>
  <unicode hex="0228"/>
  <anchor x="344" y="0" name="bottom"/>
  <anchor x="578" y="2" name="ogonek"/>
  <anchor x="334" y="662" name="top"/>
  <anchor x="20" y="662" name="topleft"/>
  <outline>
    <contour>
      <point x="568" y="590" type="line"/>
      <point x="568" y="662" type="line"/>
      <point x="81" y="662" type="line"/>
      <point x="81" y="0" type="line"/>
      <point x="319" y="0" type="line"/>
      <point x="267" y="-82" type="line"/>
      <point x="288" y="-99" type="line"/>
      <point x="298" y="-96"/>
      <point x="311" y="-94"/>
      <point x="323" y="-94" type="curve" smooth="yes"/>
      <point x="351" y="-94"/>
      <point x="376" y="-107"/>
      <point x="376" y="-127" type="curve" smooth="yes"/>
      <point x="376" y="-154"/>
      <point x="351" y="-163"/>
      <point x="321" y="-163" type="curve" smooth="yes"/>
      <point x="285" y="-163"/>
      <point x="257" y="-148"/>
      <point x="236" y="-133" type="curve"/>
      <point x="217" y="-166" type="line"/>
      <point x="242" y="-187"/>
      <point x="284" y="-207"/>
      <point x="335" y="-207" type="curve" smooth="yes"/>
      <point x="396" y="-207"/>
      <point x="449" y="-182"/>
      <point x="449" y="-126" type="curve" smooth="yes"/>
      <point x="449" y="-78"/>
      <point x="407" y="-49"/>
      <point x="357" y="-49" type="curve" smooth="yes"/>
      <point x="350" y="-49"/>
      <point x="341" y="-50"/>
      <point x="335" y="-51" type="curve"/>
      <point x="364" y="0" type="line"/>
      <point x="568" y="0" type="line"/>
      <point x="568" y="72" type="line"/>
      <point x="156" y="72" type="line"/>
      <point x="156" y="295" type="line"/>
      <point x="524" y="295" type="line"/>
      <point x="524" y="368" type="line"/>
      <point x="156" y="368" type="line"/>
      <point x="156" y="590" type="line"/>
    </contour>
  </outline>
</glyph>
<glyph name="cstroke" format="2">
  <advance width="544"/>
  <unicode hex="023C"/>
  <anchor x="302" y="0" name="_bottom"/>
  <anchor x="272" y="0" name="bottom"/>
  <anchor x="272" y="500" name="top"/>
  <outline>
    <contour>
      <point x="459" y="575" type="line"/>
      <point x="389" y="575" type="line"/>
      <point x="113" y="-75" type="line"/>
      <point x="183" y="-75" type="line"/>
    </contour>
    <component base="c"/>
  </outline>
</glyph>
<glyph name="Glottalstop" format="2">
  <advance width="591"/>
  <unicode hex="0241"/>
  <outline>
    <contour>
      <point x="301" y="670" type="curve" smooth="yes"/>
      <point x="145" y="670"/>
      <point x="47" y="576"/>
      <point x="40" y="466" type="curve"/>
      <point x="115" y="466" type="line"/>
      <point x="123" y="536"/>
      <point x="184" y="601"/>
      <point x="307" y="601" type="curve" smooth="yes"/>
      <point x="436" y="601"/>
      <point x="471" y="539"/>
      <point x="471" y="489" type="curve" smooth="yes"/>
      <point x="471" y="358"/>
      <point x="268" y="337"/>
      <point x="268" y="163" type="curve" smooth="yes"/>
      <point x="268" y="0" type="line"/>
      <point x="341" y="0" type="line"/>
      <point x="341" y="163" type="line" smooth="yes"/>
      <point x="341" y="313"/>
      <point x="546" y="323"/>
      <point x="546" y="489" type="curve" smooth="yes"/>
      <point x="546" y="579"/>
      <point x="473" y="670"/>
    </contour>
  </outline>
</glyph>
<glyph name="Estroke" format="2">
  <advance width="608"/>
  <unicode hex="0246"/>
  <anchor x="329" y="0" name="_bottom"/>
  <anchor x="334" y="662" name="top"/>
  <anchor x="344" y="0" name="bottom"/>
  <anchor x="578" y="2" name="ogonek"/>
  <anchor x="20" y="662" name="topleft"/>
  <outline>
    <contour>
      <point x="129" y="-75" type="line"/>
      <point x="199" y="-75" type="line"/>
      <point x="540" y="725" type="line"/>
      <point x="470" y="725" type="line"/>
    </contour>
    <component base="E"/>
  </outline>
</glyph>
<glyph name="estroke" format="2">
  <advance width="557"/>
  <unicode hex="0247"/>
  <anchor x="279" y="0" name="bottom"/>
  <anchor x="279" y="500" name="top"/>
  <anchor x="399" y="0" name="ogonek"/>
  <outline>
    <contour>
      <point x="459" y="575" type="line"/>
      <point x="389" y="575" type="line"/>
      <point x="113" y="-75" type="line"/>
      <point x="183" y="-75" type="line"/>
    </contour>
    <component base="e"/>
  </outline>
</glyph>
<glyph name="rstroke" format="2">
  <advance width="345"/>
  <unicode hex="024D"/>
  <anchor x="271.5" y="306" name="_center"/>
  <anchor x="103" y="0" name="bottom"/>
  <anchor x="173" y="500" name="top"/>
  <outline>
    <contour>
      <point x="0" y="218" type="line"/>
      <point x="245" y="218" type="line"/>
      <point x="245" y="283" type="line"/>
      <point x="0" y="283" type="line"/>
    </contour>
    <component base="r"/>
  </outline>
</glyph>
<glyph name="ystroke" format="2">
  <advance width="497"/>
  <unicode hex="024F"/>
  <anchor x="249" y="0" name="bottom"/>
  <anchor x="249" y="500" name="top"/>
  <outline>
    <contour>
      <point x="494" y="283" type="line"/>
      <point x="13" y="283" type="line"/>
      <point x="13" y="218" type="line"/>
      <point x="494" y="218" type="line"/>
    </contour>
    <component base="y"/>
  </outline>
</glyph>
<glyph name="bhook" format="2">
  <advance width="595"/>
  <unicode hex="0253"/>
  <anchor x="297" y="0" name="bottom"/>
  <anchor x="101" y="700" name="top"/>
  <outline>
    <contour>
      <point x="319" y="508" type="curve" smooth="yes"/>
      <point x="236" y="508"/>
      <point x="177" y="473"/>
      <point x="140" y="419" type="curve"/>
      <point x="140" y="563" type="line" smooth="yes"/>
      <point x="140" y="596"/>
      <point x="144" y="640"/>
      <point x="216" y="640" type="curve" smooth="yes"/>
      <point x="224" y="640"/>
      <point x="231" y="639"/>
      <point x="240" y="637" type="curve"/>
      <point x="240" y="705" type="line"/>
      <point x="229" y="706"/>
      <point x="220" y="707"/>
      <point x="210" y="707" type="curve" smooth="yes"/>
      <point x="85" y="707"/>
      <point x="65" y="628"/>
      <point x="65" y="563" type="curve" smooth="yes"/>
      <point x="65" y="0" type="line"/>
      <point x="140" y="0" type="line"/>
      <point x="140" y="80" type="line"/>
      <point x="177" y="26"/>
      <point x="236" y="-8"/>
      <point x="319" y="-8" type="curve" smooth="yes"/>
      <point x="465" y="-8"/>
      <point x="561" y="107"/>
      <point x="561" y="250" type="curve" smooth="yes"/>
      <point x="561" y="393"/>
      <point x="465" y="508"/>
    </contour>
    <contour>
      <point x="309" y="60" type="curve" smooth="yes"/>
      <point x="198" y="60"/>
      <point x="136" y="147"/>
      <point x="136" y="250" type="curve" smooth="yes"/>
      <point x="136" y="353"/>
      <point x="198" y="440"/>
      <point x="309" y="440" type="curve" smooth="yes"/>
      <point x="420" y="440"/>
      <point x="486" y="353"/>
      <point x="486" y="250" type="curve" smooth="yes"/>
      <point x="486" y="147"/>
      <point x="420" y="60"/>
    </contour>
  </outline>
</glyph>
<glyph name="dtail" format="2">
  <advance width="595"/>
  <unicode hex="0256"/>
  <anchor x="215" y="-79" name="_bottom"/>
  <anchor x="298" y="0" name="bottom"/>
  <anchor x="298" y="250" name="center"/>
  <anchor x="282" y="500" name="top"/>
  <anchor x="575" y="500" name="topright"/>
  <outline>
    <contour>
      <point x="600" y="-206" type="curve" smooth="yes"/>
      <point x="610" y="-206"/>
      <point x="619" y="-205"/>
      <point x="630" y="-204" type="curve"/>
      <point x="630" y="-136" type="line"/>
      <point x="621" y="-138"/>
      <point x="614" y="-139"/>
      <point x="606" y="-139" type="curve" smooth="yes"/>
      <point x="535" y="-139"/>
      <point x="530" y="-95"/>
      <point x="530" y="-62" type="curve" smooth="yes"/>
      <point x="530" y="119" type="line"/>
      <point x="455" y="119" type="line"/>
      <point x="455" y="-62" type="line" smooth="yes"/>
      <point x="455" y="-127"/>
      <point x="475" y="-206"/>
    </contour>
    <component base="d"/>
  </outline>
</glyph>
<glyph name="eopen" format="2">
  <advance width="446"/>
  <unicode hex="025B"/>
  <anchor x="223" y="0" name="bottom"/>
  <anchor x="226" y="500" name="top"/>
  <outline>
    <contour>
      <point x="233" y="-8" type="curve" smooth="yes"/>
      <point x="333" y="-8"/>
      <point x="417" y="60"/>
      <point x="418" y="147" type="curve"/>
      <point x="344" y="147" type="line"/>
      <point x="343" y="102"/>
      <point x="292" y="60"/>
      <point x="233" y="60" type="curve" smooth="yes"/>
      <point x="162" y="60"/>
      <point x="115" y="100"/>
      <point x="115" y="149" type="curve" smooth="yes"/>
      <point x="115" y="191"/>
      <point x="163" y="227"/>
      <point x="227" y="227" type="curve" smooth="yes"/>
      <point x="293" y="227" type="line"/>
      <point x="293" y="291" type="line"/>
      <point x="234" y="291" type="line" smooth="yes"/>
      <point x="176" y="291"/>
      <point x="132" y="326"/>
      <point x="132" y="366" type="curve" smooth="yes"/>
      <point x="132" y="413"/>
      <point x="179" y="440"/>
      <point x="229" y="440" type="curve" smooth="yes"/>
      <point x="278" y="440"/>
      <point x="329" y="412"/>
      <point x="333" y="365" type="curve"/>
      <point x="406" y="365" type="line"/>
      <point x="401" y="461"/>
      <point x="314" y="508"/>
      <point x="227" y="508" type="curve" smooth="yes"/>
      <point x="141" y="508"/>
      <point x="56" y="461"/>
      <point x="56" y="368" type="curve" smooth="yes"/>
      <point x="56" y="328"/>
      <point x="84" y="284"/>
      <point x="118" y="262" type="curve"/>
      <point x="70" y="240"/>
      <point x="40" y="198"/>
      <point x="40" y="150" type="curve" smooth="yes"/>
      <point x="40" y="60"/>
      <point x="122" y="-8"/>
    </contour>
  </outline>
</glyph>
<glyph name="gamma-latin" format="2">
  <advance width="532"/>
  <unicode hex="0263"/>
  <outline>
    <contour>
      <point x="527" y="500" type="curve"/>
      <point x="443" y="500" type="line"/>
      <point x="194" y="73"/>
      <point x="139" y="-7"/>
      <point x="139" y="-69" type="curve" smooth="yes"/>
      <point x="139" y="-152"/>
      <point x="189" y="-203"/>
      <point x="266" y="-203" type="curve"/>
      <point x="266" y="-130" type="line"/>
      <point x="228" y="-130"/>
      <point x="212" y="-101"/>
      <point x="212" y="-64" type="curve" smooth="yes"/>
      <point x="212" y="-21"/>
      <point x="245" y="17"/>
    </contour>
    <contour>
      <point x="5" y="500" type="line"/>
      <point x="287" y="17"/>
      <point x="320" y="-21"/>
      <point x="320" y="-64" type="curve" smooth="yes"/>
      <point x="320" y="-101"/>
      <point x="304" y="-130"/>
      <point x="266" y="-130" type="curve"/>
      <point x="266" y="-203" type="line"/>
      <point x="343" y="-203"/>
      <point x="393" y="-152"/>
      <point x="393" y="-69" type="curve" smooth="yes"/>
      <point x="393" y="-7"/>
      <point x="338" y="73"/>
      <point x="89" y="500" type="curve"/>
    </contour>
  </outline>
</glyph>
<glyph name="hhook" format="2">
  <advance width="566"/>
  <unicode hex="0266"/>
  <anchor x="283" y="0" name="bottom"/>
  <anchor x="112" y="574" name="center"/>
  <anchor x="102" y="700" name="top"/>
  <outline>
    <contour>
      <point x="306" y="508" type="curve" smooth="yes"/>
      <point x="225" y="508"/>
      <point x="176" y="470"/>
      <point x="140" y="422" type="curve"/>
      <point x="140" y="564" type="line" smooth="yes"/>
      <point x="140" y="597"/>
      <point x="144" y="641"/>
      <point x="216" y="641" type="curve" smooth="yes"/>
      <point x="224" y="641"/>
      <point x="231" y="640"/>
      <point x="240" y="638" type="curve"/>
      <point x="240" y="706" type="line"/>
      <point x="229" y="707"/>
      <point x="220" y="708"/>
      <point x="210" y="708" type="curve" smooth="yes"/>
      <point x="85" y="708"/>
      <point x="65" y="629"/>
      <point x="65" y="564" type="curve" smooth="yes"/>
      <point x="65" y="0" type="line"/>
      <point x="140" y="0" type="line"/>
      <point x="140" y="288" type="line" smooth="yes"/>
      <point x="140" y="378"/>
      <point x="208" y="440"/>
      <point x="291" y="440" type="curve" smooth="yes"/>
      <point x="373" y="440"/>
      <point x="431" y="380"/>
      <point x="431" y="289" type="curve" smooth="yes"/>
      <point x="431" y="0" type="line"/>
      <point x="506" y="0" type="line"/>
      <point x="506" y="291" type="line" smooth="yes"/>
      <point x="506" y="433"/>
      <point x="409" y="508"/>
    </contour>
  </outline>
</glyph>
<glyph name="istroke" format="2">
  <advance width="205"/>
  <unicode hex="0268"/>
  <anchor x="271.5" y="306" name="_center"/>
  <anchor x="103" y="0" name="bottom"/>
  <anchor x="149" y="0" name="ogonek"/>
  <anchor x="103" y="500" name="top"/>
  <outline>
    <contour>
      <point x="62" y="584" type="line"/>
      <point x="143" y="584" type="line"/>
      <point x="143" y="682" type="line"/>
      <point x="62" y="682" type="line"/>
    </contour>
    <component base="istroke.dotless"/>
  </outline>
</glyph>
<glyph name="nhookleft" format="2">
  <advance width="566"/>
  <unicode hex="0272"/>
  <anchor x="380" y="-79" name="_bottom"/>
  <anchor x="283" y="0" name="bottom"/>
  <anchor x="283" y="500" name="top"/>
  <outline>
    <contour>
      <point x="-5" y="-206" type="curve" smooth="yes"/>
      <point x="120" y="-206"/>
      <point x="140" y="-127"/>
      <point x="140" y="-62" type="curve" smooth="yes"/>
      <point x="140" y="119" type="line"/>
      <point x="65" y="119" type="line"/>
      <point x="65" y="-62" type="line" smooth="yes"/>
      <point x="65" y="-95"/>
      <point x="61" y="-139"/>
      <point x="-11" y="-139" type="curve" smooth="yes"/>
      <point x="-19" y="-139"/>
      <point x="-26" y="-138"/>
      <point x="-35" y="-136" type="curve"/>
      <point x="-35" y="-204" type="line"/>
      <point x="-24" y="-205"/>
      <point x="-15" y="-206"/>
    </contour>
    <component base="n"/>
  </outline>
</glyph>
<glyph name="obarred" format="2">
  <advance width="564"/>
  <unicode hex="0275"/>
  <anchor x="282" y="0" name="bottom"/>
  <anchor x="282" y="250" name="center"/>
  <anchor x="368" y="0" name="ogonek"/>
  <anchor x="282" y="500" name="top"/>
  <anchor x="544" y="500" name="topright"/>
  <outline>
    <contour>
      <point x="97" y="218" type="line"/>
      <point x="464" y="218" type="line"/>
      <point x="464" y="283" type="line"/>
      <point x="97" y="283" type="line"/>
    </contour>
    <component base="o"/>
  </outline>
</glyph>
<glyph name="rfishhook" format="2">
  <advance width="305"/>
  <unicode hex="027E"/>
  <anchor x="103" y="0" name="bottom"/>
  <anchor x="173" y="500" name="top"/>
  <outline>
    <contour>
      <point x="65" y="0" type="line"/>
      <point x="140" y="0" type="line"/>
      <point x="140" y="310" type="line" smooth="yes"/>
      <point x="140" y="374"/>
      <point x="193" y="433"/>
      <point x="280" y="433" type="curve" smooth="yes"/>
      <point x="289" y="433" type="line"/>
      <point x="289" y="508" type="line"/>
      <point x="284" y="508" type="line" smooth="yes"/>
      <point x="179" y="508"/>
      <point x="65" y="441"/>
      <point x="65" y="310" type="curve" smooth="yes"/>
    </contour>
  </outline>
</glyph>
<glyph name="ubar" format="2">
  <advance width="566"/>
  <unicode hex="0289"/>
  <anchor x="283" y="0" name="bottom"/>
  <anchor x="491" y="0" name="ogonek"/>
  <anchor x="283" y="500" name="top"/>
  <anchor x="658" y="493" name="topright"/>
  <outline>
    <contour>
      <point x="586" y="347" type="line"/>
      <point x="-25" y="347" type="line"/>
      <point x="-25" y="282" type="line"/>
      <point x="586" y="282" type="line"/>
    </contour>
    <component base="u"/>
  </outline>
</glyph>
<glyph name="upsilon-latin" format="2">
  <advance width="560"/>
  <unicode hex="028A"/>
  <anchor x="280" y="0" name="bottom"/>
  <anchor x="280" y="500" name="top"/>
  <outline>
    <contour>
      <point x="386" y="434" type="curve"/>
      <point x="497" y="434" type="line"/>
      <point x="497" y="498" type="line"/>
      <point x="323" y="498" type="line"/>
      <point x="323" y="403" type="line"/>
      <point x="401" y="390"/>
      <point x="445" y="316"/>
      <point x="445" y="234" type="curve" smooth="yes"/>
      <point x="445" y="143"/>
      <point x="394" y="59"/>
      <point x="280" y="59" type="curve" smooth="yes"/>
      <point x="166" y="59"/>
      <point x="115" y="143"/>
      <point x="115" y="234" type="curve" smooth="yes"/>
      <point x="115" y="316"/>
      <point x="160" y="390"/>
      <point x="237" y="403" type="curve"/>
      <point x="237" y="498" type="line"/>
      <point x="63" y="498" type="line"/>
      <point x="63" y="434" type="line"/>
      <point x="174" y="434" type="line"/>
      <point x="82" y="406"/>
      <point x="40" y="322"/>
      <point x="40" y="231" type="curve" smooth="yes"/>
      <point x="40" y="106"/>
      <point x="114" y="-6"/>
      <point x="280" y="-6" type="curve" smooth="yes"/>
      <point x="447" y="-6"/>
      <point x="520" y="106"/>
      <point x="520" y="231" type="curve" smooth="yes"/>
      <point x="520" y="322"/>
      <point x="478" y="406"/>
    </contour>
  </outline>
</glyph>
<glyph name="vhook" format="2">
  <advance width="538"/>
  <unicode hex="028B"/>
  <anchor x="269" y="0" name="bottom"/>
  <anchor x="269" y="500" name="top"/>
  <outline>
    <contour>
      <point x="318" y="503" type="curve"/>
      <point x="318" y="435" type="line"/>
      <point x="328" y="438"/>
      <point x="341" y="440"/>
      <point x="355" y="440" type="curve" smooth="yes"/>
      <point x="408" y="440"/>
      <point x="429" y="402"/>
      <point x="429" y="323" type="curve" smooth="yes"/>
      <point x="429" y="211"/>
      <point x="368" y="58"/>
      <point x="241" y="58" type="curve" smooth="yes"/>
      <point x="167" y="58"/>
      <point x="140" y="86"/>
      <point x="140" y="166" type="curve" smooth="yes"/>
      <point x="140" y="500" type="line"/>
      <point x="65" y="500" type="line"/>
      <point x="65" y="153" type="line" smooth="yes"/>
      <point x="65" y="44"/>
      <point x="120" y="-10"/>
      <point x="238" y="-10" type="curve" smooth="yes"/>
      <point x="386" y="-10"/>
      <point x="504" y="141"/>
      <point x="504" y="328" type="curve" smooth="yes"/>
      <point x="504" y="443"/>
      <point x="459" y="508"/>
      <point x="370" y="508" type="curve" smooth="yes"/>
      <point x="354" y="508"/>
      <point x="337" y="506"/>
    </contour>
  </outline>
</glyph>
<glyph name="ezh" format="2">
  <advance width="499"/>
  <unicode hex="0292"/>
  <anchor x="235" y="0" name="bottom"/>
  <anchor x="235" y="500" name="top"/>
  <outline>
    <contour>
      <point x="163" y="167" type="line"/>
      <point x="251" y="226" type="line"/>
      <point x="404" y="439" type="line"/>
      <point x="404" y="500" type="line"/>
      <point x="64" y="500" type="line"/>
      <point x="64" y="434" type="line"/>
      <point x="308" y="434" type="line"/>
      <point x="164" y="228" type="line"/>
    </contour>
    <contour>
      <point x="163" y="167" type="line"/>
      <point x="218" y="167" type="line" smooth="yes"/>
      <point x="310" y="167"/>
      <point x="376" y="109"/>
      <point x="376" y="20" type="curve" smooth="yes"/>
      <point x="376" y="-69"/>
      <point x="323" y="-133"/>
      <point x="235" y="-133" type="curve" smooth="yes"/>
      <point x="179" y="-133"/>
      <point x="123" y="-100"/>
      <point x="103" y="-45" type="curve"/>
      <point x="24" y="-45" type="line"/>
      <point x="50" y="-143"/>
      <point x="140" y="-206"/>
      <point x="235" y="-206" type="curve" smooth="yes"/>
      <point x="364" y="-206"/>
      <point x="451" y="-109"/>
      <point x="451" y="20" type="curve" smooth="yes"/>
      <point x="451" y="150"/>
      <point x="355" y="236"/>
      <point x="220" y="234" type="curve"/>
    </contour>
  </outline>
</glyph>
<glyph name="jcrossedtail" format="2">
  <advance width="306"/>
  <unicode hex="029D"/>
  <outline>
    <contour>
      <point x="244" y="682" type="line"/>
      <point x="163" y="682" type="line"/>
      <point x="163" y="584" type="line"/>
      <point x="244" y="584" type="line"/>
    </contour>
    <contour>
      <point x="224" y="26" type="curve"/>
      <point x="224" y="-37" type="line"/>
      <point x="259" y="-50"/>
      <point x="286" y="-67"/>
      <point x="309" y="-86" type="curve"/>
      <point x="309" y="-19" type="line"/>
      <point x="286" y="0"/>
      <point x="259" y="15"/>
    </contour>
    <contour>
      <point x="241" y="-24" type="curve"/>
      <point x="241" y="500" type="line"/>
      <point x="166" y="500" type="line"/>
      <point x="166" y="-34" type="line" smooth="yes"/>
      <point x="166" y="-76"/>
      <point x="156" y="-133"/>
      <point x="91" y="-133" type="curve" smooth="yes"/>
      <point x="57" y="-133"/>
      <point x="35" y="-106"/>
      <point x="35" y="-77" type="curve" smooth="yes"/>
      <point x="35" y="-43"/>
      <point x="62" y="-17"/>
      <point x="103" y="-17" type="curve" smooth="yes"/>
      <point x="136" y="-17"/>
      <point x="157" y="-20"/>
      <point x="179" y="-26" type="curve"/>
      <point x="174" y="37" type="line"/>
      <point x="163" y="39"/>
      <point x="139" y="42"/>
      <point x="103" y="43" type="curve" smooth="yes"/>
      <point x="10" y="43"/>
      <point x="-40" y="-10"/>
      <point x="-40" y="-77" type="curve" smooth="yes"/>
      <point x="-40" y="-154"/>
      <point x="15" y="-206"/>
      <point x="89" y="-206" type="curve" smooth="yes"/>
      <point x="206" y="-206"/>
      <point x="244" y="-118"/>
    </contour>
  </outline>
</glyph>
<glyph name="primemod" format="2">
  <advance width="262"/>
  <unicode hex="02B9"/>
  <outline>
    <contour>
      <point x="222" y="764" type="line"/>
      <point x="124" y="764" type="line"/>
      <point x="40" y="475" type="line"/>
      <point x="108" y="475" type="line"/>
    </contour>
  </outline>
</glyph>
<glyph name="doubleprimemod" format="2">
  <advance width="412"/>
  <unicode hex="02BA"/>
  <outline>
    <contour>
      <point x="222" y="764" type="line"/>
      <point x="124" y="764" type="line"/>
      <point x="40" y="475" type="line"/>
      <point x="108" y="475" type="line"/>
    </contour>
    <contour>
      <point x="372" y="764" type="line"/>
      <point x="274" y="764" type="line"/>
      <point x="190" y="475" type="line"/>
      <point x="258" y="475" type="line"/>
    </contour>
  </outline>
</glyph>
<glyph name="glottalstopmod" format="2">
  <advance width="351"/>
  <unicode hex="02C0"/>
  <outline>
    <contour>
      <point x="149" y="405" type="curve"/>
      <point x="204" y="405" type="line"/>
      <point x="204" y="491"/>
      <point x="311" y="496"/>
      <point x="311" y="591" type="curve" smooth="yes"/>
      <point x="311" y="649"/>
      <point x="269" y="708"/>
      <point x="175" y="708" type="curve" smooth="yes"/>
      <point x="90" y="708"/>
      <point x="35" y="647"/>
      <point x="35" y="576" type="curve"/>
      <point x="90" y="576" type="line"/>
      <point x="90" y="616"/>
      <point x="122" y="654"/>
      <point x="179" y="654" type="curve" smooth="yes"/>
      <point x="235" y="654"/>
      <point x="256" y="619"/>
      <point x="256" y="591" type="curve" smooth="yes"/>
      <point x="256" y="516"/>
      <point x="149" y="504"/>
    </contour>
    <contour>
      <point x="149" y="405" type="line"/>
      <point x="149" y="290" type="line"/>
      <point x="204" y="290" type="line"/>
      <point x="204" y="405" type="line"/>
    </contour>
  </outline>
</glyph>
<glyph name="circumflex" format="2">
  <advance width="384"/>
  <unicode hex="02C6"/>
  <outline>
    <contour>
      <point x="49" y="570" type="line"/>
      <point x="131" y="570" type="line"/>
      <point x="190" y="624" type="line"/>
      <point x="249" y="570" type="line"/>
      <point x="331" y="570" type="line"/>
      <point x="234" y="675" type="line"/>
      <point x="147" y="675" type="line"/>
    </contour>
  </outline>
</glyph>
<glyph name="verticallinelowmod" format="2">
  <advance width="156"/>
  <unicode hex="02CC"/>
  <outline>
    <contour>
      <point x="44" y="-198" type="line"/>
      <point x="112" y="-198" type="line"/>
      <point x="112" y="50" type="line"/>
      <point x="44" y="50" type="line"/>
    </contour>
  </outline>
</glyph>
<glyph name="minusmod" format="2">
  <advance width="325"/>
  <unicode hex="02D7"/>
  <outline>
    <contour>
      <point x="50" y="138" type="line"/>
      <point x="275" y="138" type="line"/>
      <point x="275" y="203" type="line"/>
      <point x="50" y="203" type="line"/>
    </contour>
  </outline>
</glyph>
<glyph name="ring" format="2">
  <advance width="323"/>
  <unicode hex="02DA"/>
  <outline>
    <contour>
      <point x="163" y="556" type="curve" smooth="yes"/>
      <point x="214" y="556"/>
      <point x="254" y="596"/>
      <point x="254" y="645" type="curve" smooth="yes"/>
      <point x="254" y="695"/>
      <point x="214" y="735"/>
      <point x="163" y="735" type="curve" smooth="yes"/>
      <point x="114" y="735"/>
      <point x="74" y="695"/>
      <point x="74" y="645" type="curve" smooth="yes"/>
      <point x="74" y="596"/>
      <point x="114" y="556"/>
    </contour>
    <contour>
      <point x="163" y="601" type="curve" smooth="yes"/>
      <point x="140" y="601"/>
      <point x="120" y="621"/>
      <point x="120" y="645" type="curve" smooth="yes"/>
      <point x="120" y="670"/>
      <point x="140" y="690"/>
      <point x="163" y="690" type="curve" smooth="yes"/>
      <point x="188" y="690"/>
      <point x="208" y="670"/>
      <point x="208" y="645" type="curve" smooth="yes"/>
      <point x="208" y="621"/>
      <point x="188" y="601"/>
    </contour>
  </outline>
</glyph>
<glyph name="hookabovecomb" format="2">
  <unicode hex="0309"/>
  <anchor x="83" y="481" name="_top"/>
  <anchor x="63" y="733" name="top"/>
  <outline>
    <contour>
      <point x="66" y="542" type="line"/>
      <point x="124" y="564"/>
      <point x="151" y="601"/>
      <point x="151" y="644" type="curve" smooth="yes"/>
      <point x="151" y="688"/>
      <point x="118" y="724"/>
      <point x="66" y="724" type="curve" smooth="yes"/>
      <point x="22" y="724"/>
      <point x="-12" y="705"/>
      <point x="-28" y="668" type="curve"/>
      <point x="13" y="639" type="line"/>
      <point x="25" y="660"/>
      <point x="44" y="669"/>
      <point x="60" y="669" type="curve" smooth="yes"/>
      <point x="84" y="669"/>
      <point x="97" y="653"/>
      <point x="97" y="634" type="curve" smooth="yes"/>
      <point x="97" y="607"/>
      <point x="76" y="594"/>
      <point x="41" y="577" type="curve"/>
    </contour>
  </outline>
</glyph>
<glyph name="verticallineabovecomb" format="2">
  <unicode hex="030D"/>
  <anchor x="78" y="500" name="_top"/>
  <anchor x="78" y="948" name="top"/>
  <outline>
    <contour>
      <point x="44" y="750" type="line"/>
      <point x="112" y="750" type="line"/>
      <point x="112" y="948" type="line"/>
      <point x="44" y="948" type="line"/>
    </contour>
  </outline>
</glyph>
<glyph name="dotbelowcomb" format="2">
  <unicode hex="0323"/>
  <anchor x="44.5" y="0" name="_bottom"/>
  <anchor x="44.5" y="-151" name="bottom"/>
  <outline>
    <contour>
      <point x="0" y="-151" type="line"/>
      <point x="89" y="-151" type="line"/>
      <point x="89" y="-68" type="line"/>
      <point x="0" y="-68" type="line"/>
    </contour>
  </outline>
</glyph>
<glyph name="commaaccentcomb" format="2">
  <unicode hex="0326"/>
  <anchor x="81" y="0" name="_bottom"/>
  <anchor x="45" y="-195" name="bottom"/>
  <outline>
    <contour>
      <point x="0" y="-198" type="line"/>
      <point x="51" y="-198" type="line"/>
      <point x="117" y="-48" type="line"/>
      <point x="44" y="-48" type="line"/>
    </contour>
  </outline>
</glyph>
<glyph name="ogonekcomb" format="2">
  <unicode hex="0328"/>
  <anchor x="182" y="2" name="_ogonek"/>
  <outline>
    <contour>
      <point x="0" y="-121" type="curve" smooth="yes"/>
      <point x="0" y="-176"/>
      <point x="48" y="-204"/>
      <point x="97" y="-204" type="curve" smooth="yes"/>
      <point x="125" y="-204"/>
      <point x="153" y="-196"/>
      <point x="173" y="-180" type="curve"/>
      <point x="173" y="-141" type="line"/>
      <point x="163" y="-148"/>
      <point x="150" y="-152"/>
      <point x="137" y="-152" type="curve" smooth="yes"/>
      <point x="107" y="-152"/>
      <point x="77" y="-134"/>
      <point x="77" y="-102" type="curve" smooth="yes"/>
      <point x="77" y="-52"/>
      <point x="142" y="-17"/>
      <point x="172" y="2" type="curve"/>
      <point x="116" y="2" type="line"/>
      <point x="69" y="-20"/>
      <point x="0" y="-53"/>
    </contour>
  </outline>
</glyph>
<glyph name="tildeoverlaycomb" format="2">
  <unicode hex="0334"/>
  <anchor x="189.5" y="376.5" name="_center"/>
  <outline>
    <contour>
      <point x="268" y="323" type="curve" smooth="yes"/>
      <point x="341" y="323"/>
      <point x="371" y="376"/>
      <point x="379" y="429" type="curve"/>
      <point x="341" y="429" type="line"/>
      <point x="337" y="411"/>
      <point x="319" y="386"/>
      <point x="286" y="386" type="curve" smooth="yes"/>
      <point x="227" y="386"/>
      <point x="195" y="430"/>
      <point x="112" y="430" type="curve" smooth="yes"/>
      <point x="38" y="430"/>
      <point x="8" y="376"/>
      <point x="0" y="324" type="curve"/>
      <point x="37" y="324" type="line"/>
      <point x="44" y="341"/>
      <point x="58" y="367"/>
      <point x="93" y="367" type="curve" smooth="yes"/>
      <point x="153" y="367"/>
      <point x="184" y="323"/>
    </contour>
  </outline>
</glyph>
<glyph name="strokeshortcomb" format="2">
  <unicode hex="0335"/>
  <anchor x="271.5" y="306" name="_center"/>
  <outline>
    <contour>
      <point x="0" y="273" type="line"/>
      <point x="543" y="273" type="line"/>
      <point x="543" y="338" type="line"/>
      <point x="0" y="338" type="line"/>
    </contour>
  </outline>
</glyph>
<glyph name="figuredash" format="2">
  <advance width="720"/>
  <unicode hex="2012"/>
  <outline>
    <contour>
      <point x="55" y="262" type="line"/>
      <point x="665" y="262" type="line"/>
      <point x="665" y="329" type="line"/>
      <point x="55" y="329" type="line"/>
    </contour>
  </outline>
</glyph>
<glyph name="quoteleft" format="2">
  <advance width="218"/>
  <unicode hex="2018"/>
  <outline>
    <contour>
      <point x="36" y="475" type="line"/>
      <point x="134" y="475" type="line"/>
      <point x="192" y="688" type="line"/>
      <point x="124" y="688" type="line"/>
    </contour>
  </outline>
</glyph>
<glyph name="bullet" format="2">
  <advance width="340"/>
  <unicode hex="2022"/>
  <outline>
    <contour>
      <point x="170" y="186" type="curve" smooth="yes"/>
      <point x="244" y="186"/>
      <point x="304" y="246"/>
      <point x="304" y="320" type="curve" smooth="yes"/>
      <point x="304" y="394"/>
      <point x="244" y="454"/>
      <point x="170" y="454" type="curve" smooth="yes"/>
      <point x="96" y="454"/>
      <point x="36" y="394"/>
      <point x="36" y="320" type="curve" smooth="yes"/>
      <point x="36" y="246"/>
      <point x="96" y="186"/>
    </contour>
  </outline>
</glyph>
<glyph name="guilsinglleft" format="2">
  <advance width="303"/>
  <unicode hex="2039"/>
  <outline>
    <contour>
      <point x="169" y="57" type="line"/>
      <point x="258" y="57" type="line"/>
      <point x="121" y="259" type="line"/>
      <point x="258" y="461" type="line"/>
      <point x="169" y="461" type="line"/>
      <point x="39" y="259" type="line"/>
    </contour>
  </outline>
</glyph>
<glyph name="fraction" format="2">
  <advance width="468"/>
  <unicode hex="2044"/>
  <outline>
    <contour>
      <point x="-8" y="-14" type="line"/>
      <point x="56" y="-14" type="line"/>
      <point x="476" y="674" type="line"/>
      <point x="412" y="674" type="line"/>
    </contour>
  </outline>
</glyph>
<glyph name="commercialMinusSign" format="2">
  <advance width="324"/>
  <unicode hex="2052"/>
  <outline>
    <contour>
      <point x="323" y="662" type="line"/>
      <point x="253" y="662" type="line"/>
      <point x="40" y="0" type="line"/>
      <point x="110" y="0" type="line"/>
    </contour>
    <component base="period" xOffset="170"/>
    <component base="period" xOffset="-25" yOffset="560"/>
  </outline>
</glyph>
<glyph name="naira" format="2">
  <advance width="683"/>
  <unicode hex="20A6"/>
  <anchor x="342" y="0" name="bottom"/>
  <anchor x="342" y="662" name="top"/>
  <outline>
    <contour>
      <point x="652" y="369" type="line"/>
      <point x="652" y="435" type="line"/>
      <point x="582" y="435" type="line"/>
      <point x="582" y="662" type="line"/>
      <point x="507" y="662" type="line"/>
      <point x="507" y="435" type="line"/>
      <point x="320" y="435" type="line"/>
      <point x="188" y="662" type="line"/>
      <point x="101" y="662" type="line"/>
      <point x="101" y="435" type="line"/>
      <point x="31" y="435" type="line"/>
      <point x="31" y="369" type="line"/>
      <point x="101" y="369" type="line"/>
      <point x="101" y="295" type="line"/>
      <point x="31" y="295" type="line"/>
      <point x="31" y="229" type="line"/>
      <point x="101" y="229" type="line"/>
      <point x="101" y="0" type="line"/>
      <point x="176" y="0" type="line"/>
      <point x="176" y="229" type="line"/>
      <point x="363" y="229" type="line"/>
      <point x="495" y="0" type="line"/>
      <point x="582" y="0" type="line"/>
      <point x="582" y="229" type="line"/>
      <point x="652" y="229" type="line"/>
      <point x="652" y="295" type="line"/>
      <point x="582" y="295" type="line"/>
      <point x="582" y="369" type="line"/>
    </contour>
    <contour>
      <point x="176" y="551" type="line"/>
      <point x="243" y="435" type="line"/>
      <point x="176" y="435" type="line"/>
    </contour>
    <contour>
      <point x="176" y="295" type="line"/>
      <point x="176" y="369" type="line"/>
      <point x="282" y="369" type="line"/>
      <point x="324" y="295" type="line"/>
    </contour>
    <contour>
      <point x="507" y="295" type="line"/>
      <point x="401" y="295" type="line"/>
      <point x="358" y="369" type="line"/>
      <point x="507" y="369" type="line"/>
    </contour>
    <contour>
      <point x="507" y="112" type="line"/>
      <point x="439" y="229" type="line"/>
      <point x="507" y="229" type="line"/>
    </contour>
  </outline>
</glyph>
<glyph name="won" format="2">
  <advance width="797"/>
  <unicode hex="20A9"/>
  <anchor x="419" y="0" name="bottom"/>
  <anchor x="419" y="662" name="top"/>
  <outline>
    <contour>
      <point x="788" y="662" type="line"/>
      <point x="709" y="662" type="line"/>
      <point x="628" y="364" type="line"/>
      <point x="506" y="364" type="line"/>
      <point x="441" y="662" type="line"/>
      <point x="355" y="662" type="line"/>
      <point x="356" y="661" type="line"/>
      <point x="291" y="364" type="line"/>
      <point x="169" y="364" type="line"/>
      <point x="88" y="662" type="line"/>
      <point x="9" y="662" type="line"/>
      <point x="93" y="364" type="line"/>
      <point x="31" y="364" type="line"/>
      <point x="31" y="298" type="line"/>
      <point x="111" y="298" type="line"/>
      <point x="195" y="0" type="line"/>
      <point x="280" y="0" type="line"/>
      <point x="346" y="298" type="line"/>
      <point x="452" y="298" type="line"/>
      <point x="517" y="0" type="line"/>
      <point x="602" y="0" type="line"/>
      <point x="686" y="298" type="line"/>
      <point x="768" y="298" type="line"/>
      <point x="768" y="364" type="line"/>
      <point x="704" y="364" type="line"/>
    </contour>
    <contour>
      <point x="360" y="364" type="line"/>
      <point x="399" y="540" type="line"/>
      <point x="437" y="364" type="line"/>
    </contour>
    <contour>
      <point x="237" y="115" type="line"/>
      <point x="187" y="298" type="line"/>
      <point x="277" y="298" type="line"/>
    </contour>
    <contour>
      <point x="560" y="115" type="line"/>
      <point x="520" y="298" type="line"/>
      <point x="610" y="298" type="line"/>
    </contour>
  </outline>
</glyph>
<glyph name="dong" format="2">
  <advance width="600"/>
  <unicode hex="20AB"/>
  <anchor x="298" y="0" name="bottom"/>
  <anchor x="298" y="250" name="center"/>
  <anchor x="298" y="700" name="top"/>
  <anchor x="575" y="500" name="topright"/>
  <outline>
    <contour>
      <point x="580" y="616" type="line"/>
      <point x="530" y="616" type="line"/>
      <point x="530" y="700" type="line"/>
      <point x="455" y="700" type="line"/>
      <point x="455" y="616" type="line"/>
      <point x="335" y="616" type="line"/>
      <point x="335" y="550" type="line"/>
      <point x="455" y="550" type="line"/>
      <point x="455" y="419" type="line"/>
      <point x="418" y="473"/>
      <point x="359" y="508"/>
      <point x="276" y="508" type="curve" smooth="yes"/>
      <point x="130" y="508"/>
      <point x="34" y="402"/>
      <point x="34" y="270" type="curve" smooth="yes"/>
      <point x="34" y="138"/>
      <point x="130" y="32"/>
      <point x="276" y="32" type="curve" smooth="yes"/>
      <point x="359" y="32"/>
      <point x="418" y="66"/>
      <point x="455" y="120" type="curve"/>
      <point x="455" y="40" type="line"/>
      <point x="530" y="40" type="line"/>
      <point x="530" y="550" type="line"/>
      <point x="580" y="550" type="line"/>
    </contour>
    <contour>
      <point x="286" y="100" type="curve" smooth="yes"/>
      <point x="175" y="100"/>
      <point x="109" y="178"/>
      <point x="109" y="270" type="curve" smooth="yes"/>
      <point x="109" y="362"/>
      <point x="175" y="440"/>
      <point x="286" y="440" type="curve" smooth="yes"/>
      <point x="397" y="440"/>
      <point x="459" y="362"/>
      <point x="459" y="270" type="curve" smooth="yes"/>
      <point x="459" y="178"/>
      <point x="397" y="100"/>
    </contour>
    <contour>
      <point x="105" y="-96" type="line"/>
      <point x="530" y="-96" type="line"/>
      <point x="530" y="-26" type="line"/>
      <point x="105" y="-26" type="line"/>
    </contour>
  </outline>
</glyph>
<glyph name="peso" format="2">
  <advance width="607"/>
  <unicode hex="20B1"/>
  <outline>
    <contour>
      <point x="607" y="525" type="line"/>
      <point x="541" y="525" type="line"/>
      <point x="510" y="611"/>
      <point x="435" y="662"/>
      <point x="329" y="662" type="curve" smooth="yes"/>
      <point x="81" y="662" type="line"/>
      <point x="81" y="525" type="line"/>
      <point x="31" y="525" type="line"/>
      <point x="31" y="459" type="line"/>
      <point x="81" y="459" type="line"/>
      <point x="81" y="385" type="line"/>
      <point x="31" y="385" type="line"/>
      <point x="31" y="319" type="line"/>
      <point x="81" y="319" type="line"/>
      <point x="81" y="0" type="line"/>
      <point x="156" y="0" type="line"/>
      <point x="156" y="196" type="line"/>
      <point x="329" y="196" type="line" smooth="yes"/>
      <point x="429" y="196"/>
      <point x="502" y="241"/>
      <point x="536" y="319" type="curve"/>
      <point x="607" y="319" type="line"/>
      <point x="607" y="385" type="line"/>
      <point x="554" y="385" type="line"/>
      <point x="556" y="399"/>
      <point x="557" y="414"/>
      <point x="557" y="429" type="curve" smooth="yes"/>
      <point x="557" y="439"/>
      <point x="557" y="449"/>
      <point x="556" y="459" type="curve"/>
      <point x="607" y="459" type="line"/>
    </contour>
    <contour>
      <point x="156" y="591" type="line"/>
      <point x="324" y="591" type="line" smooth="yes"/>
      <point x="389" y="591"/>
      <point x="434" y="567"/>
      <point x="459" y="525" type="curve"/>
      <point x="156" y="525" type="line"/>
    </contour>
    <contour>
      <point x="482" y="429" type="curve" smooth="yes"/>
      <point x="482" y="413"/>
      <point x="481" y="399"/>
      <point x="478" y="385" type="curve"/>
      <point x="156" y="385" type="line"/>
      <point x="156" y="459" type="line"/>
      <point x="480" y="459" type="line"/>
      <point x="481" y="449"/>
      <point x="482" y="439"/>
    </contour>
    <contour>
      <point x="324" y="266" type="curve" smooth="yes"/>
      <point x="156" y="266" type="line"/>
      <point x="156" y="319" type="line"/>
      <point x="450" y="319" type="line"/>
      <point x="424" y="285"/>
      <point x="382" y="266"/>
    </contour>
  </outline>
</glyph>
<glyph name="liraTurkish" format="2">
  <advance width="647"/>
  <unicode hex="20BA"/>
  <outline>
    <contour>
      <point x="522" y="268" type="line"/>
      <point x="522" y="131"/>
      <point x="461" y="72"/>
      <point x="337" y="72" type="curve" smooth="yes"/>
      <point x="264" y="72" type="line"/>
      <point x="264" y="276" type="line"/>
      <point x="475" y="337" type="line"/>
      <point x="475" y="403" type="line"/>
      <point x="264" y="342" type="line"/>
      <point x="264" y="434" type="line"/>
      <point x="475" y="495" type="line"/>
      <point x="475" y="561" type="line"/>
      <point x="264" y="500" type="line"/>
      <point x="264" y="662" type="line"/>
      <point x="189" y="662" type="line"/>
      <point x="189" y="478" type="line"/>
      <point x="60" y="441" type="line"/>
      <point x="60" y="375" type="line"/>
      <point x="189" y="412" type="line"/>
      <point x="189" y="320" type="line"/>
      <point x="60" y="283" type="line"/>
      <point x="60" y="217" type="line"/>
      <point x="189" y="254" type="line"/>
      <point x="189" y="0" type="line"/>
      <point x="345" y="0" type="line" smooth="yes"/>
      <point x="506" y="0"/>
      <point x="592" y="85"/>
      <point x="599" y="268" type="curve"/>
    </contour>
  </outline>
</glyph>
<glyph name="manat" format="2">
  <advance width="700"/>
  <unicode hex="20BC"/>
  <outline>
    <contour>
      <point x="383" y="638" type="curve"/>
      <point x="383" y="746" type="line"/>
      <point x="317" y="746" type="line"/>
      <point x="317" y="638" type="line"/>
      <point x="150" y="621"/>
      <point x="70" y="470"/>
      <point x="70" y="233" type="curve" smooth="yes"/>
      <point x="70" y="0" type="line"/>
      <point x="145" y="0" type="line"/>
      <point x="145" y="249" type="line" smooth="yes"/>
      <point x="145" y="431"/>
      <point x="200" y="547"/>
      <point x="317" y="565" type="curve"/>
      <point x="317" y="0" type="line"/>
      <point x="383" y="0" type="line"/>
      <point x="383" y="565" type="line"/>
      <point x="500" y="547"/>
      <point x="555" y="431"/>
      <point x="555" y="249" type="curve" smooth="yes"/>
      <point x="555" y="0" type="line"/>
      <point x="630" y="0" type="line"/>
      <point x="630" y="233" type="line" smooth="yes"/>
      <point x="630" y="470"/>
      <point x="550" y="621"/>
    </contour>
  </outline>
</glyph>
<glyph name="literSign" format="2">
  <advance width="419"/>
  <unicode hex="2113"/>
  <outline>
    <contour>
      <point x="207" y="185" type="curve" smooth="yes"/>
      <point x="207" y="234" type="line"/>
      <point x="307" y="294"/>
      <point x="379" y="406"/>
      <point x="379" y="533" type="curve" smooth="yes"/>
      <point x="379" y="615"/>
      <point x="331" y="670"/>
      <point x="260" y="670" type="curve" smooth="yes"/>
      <point x="180" y="670"/>
      <point x="135" y="608"/>
      <point x="135" y="504" type="curve" smooth="yes"/>
      <point x="135" y="270" type="line"/>
      <point x="106" y="259"/>
      <point x="74" y="254"/>
      <point x="40" y="254" type="curve"/>
      <point x="40" y="186" type="line"/>
      <point x="73" y="186"/>
      <point x="104" y="191"/>
      <point x="135" y="201" type="curve"/>
      <point x="135" y="185" type="line" smooth="yes"/>
      <point x="135" y="65"/>
      <point x="193" y="-12"/>
      <point x="305" y="-12" type="curve" smooth="yes"/>
      <point x="323" y="-12"/>
      <point x="342" y="-10"/>
      <point x="363" y="-6" type="curve"/>
      <point x="363" y="53" type="line"/>
      <point x="344" y="48"/>
      <point x="326" y="46"/>
      <point x="311" y="46" type="curve" smooth="yes"/>
      <point x="235" y="46"/>
      <point x="207" y="98"/>
    </contour>
    <contour>
      <point x="207" y="504" type="line" smooth="yes"/>
      <point x="207" y="556"/>
      <point x="213" y="610"/>
      <point x="260" y="610" type="curve" smooth="yes"/>
      <point x="288" y="610"/>
      <point x="304" y="581"/>
      <point x="304" y="533" type="curve" smooth="yes"/>
      <point x="304" y="434"/>
      <point x="267" y="357"/>
      <point x="207" y="309" type="curve"/>
    </contour>
  </outline>
</glyph>
<glyph name="trademark" format="2">
  <advance width="815"/>
  <unicode hex="2122"/>
  <outline>
    <contour>
      <point x="180" y="313" type="line"/>
      <point x="229" y="313" type="line"/>
      <point x="229" y="615" type="line"/>
      <point x="348" y="615" type="line"/>
      <point x="348" y="662" type="line"/>
      <point x="62" y="662" type="line"/>
      <point x="62" y="615" type="line"/>
      <point x="180" y="615" type="line"/>
    </contour>
    <contour>
      <point x="408" y="313" type="line"/>
      <point x="457" y="313" type="line"/>
      <point x="457" y="582" type="line"/>
      <point x="575" y="433" type="line"/>
      <point x="691" y="582" type="line"/>
      <point x="691" y="313" type="line"/>
      <point x="740" y="313" type="line"/>
      <point x="740" y="662" type="line"/>
      <point x="689" y="662" type="line"/>
      <point x="575" y="509" type="line"/>
      <point x="460" y="662" type="line"/>
      <point x="408" y="662" type="line"/>
    </contour>
  </outline>
</glyph>
<glyph name="estimated" format="2">
  <advance width="780"/>
  <unicode hex="212E"/>
  <outline>
    <contour>
      <point x="170" y="102" type="curve" smooth="yes"/>
      <point x="165" y="108"/>
      <point x="161" y="115"/>
      <point x="161" y="123" type="curve" smooth="yes"/>
      <point x="161" y="299" type="line" smooth="yes"/>
      <point x="161" y="302"/>
      <point x="164" y="303"/>
      <point x="167" y="303" type="curve" smooth="yes"/>
      <point x="751" y="303" type="line"/>
      <point x="751" y="312" type="line" smooth="yes"/>
      <point x="751" y="491"/>
      <point x="589" y="636"/>
      <point x="390" y="636" type="curve" smooth="yes"/>
      <point x="191" y="636"/>
      <point x="29" y="491"/>
      <point x="29" y="312" type="curve" smooth="yes"/>
      <point x="29" y="132"/>
      <point x="191" y="-13"/>
      <point x="390" y="-13" type="curve" smooth="yes"/>
      <point x="506" y="-13"/>
      <point x="611" y="38"/>
      <point x="676" y="114" type="curve"/>
      <point x="623" y="114" type="line"/>
      <point x="567" y="48"/>
      <point x="484" y="7"/>
      <point x="391" y="7" type="curve" smooth="yes"/>
      <point x="303" y="7"/>
      <point x="225" y="44"/>
    </contour>
    <contour>
      <point x="615" y="322" type="curve" smooth="yes"/>
      <point x="167" y="322" type="line" smooth="yes"/>
      <point x="164" y="322"/>
      <point x="161" y="324"/>
      <point x="161" y="327" type="curve" smooth="yes"/>
      <point x="161" y="499" type="line" smooth="yes"/>
      <point x="161" y="508"/>
      <point x="165" y="516"/>
      <point x="171" y="522" type="curve" smooth="yes"/>
      <point x="226" y="579"/>
      <point x="304" y="616"/>
      <point x="391" y="616" type="curve" smooth="yes"/>
      <point x="476" y="616"/>
      <point x="554" y="581"/>
      <point x="610" y="525" type="curve" smooth="yes"/>
      <point x="616" y="519"/>
      <point x="619" y="512"/>
      <point x="619" y="503" type="curve" smooth="yes"/>
      <point x="619" y="327" type="line" smooth="yes"/>
      <point x="619" y="324"/>
      <point x="617" y="322"/>
    </contour>
  </outline>
</glyph>
<glyph name="partialdiff" format="2">
  <advance width="603"/>
  <unicode hex="2202"/>
  <outline>
    <contour>
      <point x="235" y="-8" type="curve" smooth="yes"/>
      <point x="465" y="-8"/>
      <point x="550" y="260"/>
      <point x="550" y="440" type="curve" smooth="yes"/>
      <point x="550" y="598"/>
      <point x="484" y="724"/>
      <point x="327" y="722" type="curve" smooth="yes"/>
      <point x="245" y="721"/>
      <point x="186" y="685"/>
      <point x="143" y="638" type="curve"/>
      <point x="184" y="604" type="line"/>
      <point x="216" y="636"/>
      <point x="257" y="658"/>
      <point x="308" y="658" type="curve" smooth="yes"/>
      <point x="439" y="658"/>
      <point x="478" y="571"/>
      <point x="478" y="432" type="curve" smooth="yes"/>
      <point x="478" y="416"/>
      <point x="475" y="373"/>
      <point x="472" y="360" type="curve"/>
      <point x="433" y="395"/>
      <point x="390" y="422"/>
      <point x="308" y="422" type="curve" smooth="yes"/>
      <point x="173" y="422"/>
      <point x="41" y="315"/>
      <point x="41" y="169" type="curve" smooth="yes"/>
      <point x="41" y="65"/>
      <point x="123" y="-8"/>
    </contour>
    <contour>
      <point x="248" y="65" type="curve" smooth="yes"/>
      <point x="173" y="65"/>
      <point x="118" y="112"/>
      <point x="118" y="182" type="curve" smooth="yes"/>
      <point x="118" y="280"/>
      <point x="212" y="351"/>
      <point x="298" y="351" type="curve" smooth="yes"/>
      <point x="380" y="351"/>
      <point x="423" y="328"/>
      <point x="459" y="297" type="curve"/>
      <point x="434" y="172"/>
      <point x="360" y="65"/>
    </contour>
  </outline>
</glyph>
<glyph name="increment" format="2">
  <advance width="579"/>
  <unicode hex="2206"/>
  <outline>
    <contour>
      <point x="34" y="0" type="line"/>
      <point x="545" y="0" type="line"/>
      <point x="314" y="662" type="line"/>
      <point x="268" y="662" type="line"/>
    </contour>
    <contour>
      <point x="107" y="71" type="line"/>
      <point x="278" y="559" type="line"/>
      <point x="439" y="71" type="line"/>
    </contour>
  </outline>
</glyph>
<glyph name="summation" format="2">
  <advance width="653"/>
  <unicode hex="2211"/>
  <outline>
    <contour>
      <point x="42" y="-180" type="line"/>
      <point x="606" y="-180" type="line"/>
      <point x="606" y="-107" type="line"/>
      <point x="143" y="-107" type="line"/>
      <point x="478" y="284" type="line"/>
      <point x="143" y="675" type="line"/>
      <point x="606" y="675" type="line"/>
      <point x="606" y="748" type="line"/>
      <point x="42" y="748" type="line"/>
      <point x="42" y="682" type="line"/>
      <point x="375" y="284" type="line"/>
      <point x="42" y="-113" type="line"/>
    </contour>
  </outline>
</glyph>
<glyph name="divisionslash" format="2">
  <advance width="359"/>
  <unicode hex="2215"/>
  <outline>
    <contour>
      <point x="30" y="-32" type="line"/>
      <point x="100" y="-32" type="line"/>
      <point x="329" y="680" type="line"/>
      <point x="259" y="680" type="line"/>
    </contour>
  </outline>
</glyph>
<glyph name="radical" format="2">
  <advance width="672"/>
  <unicode hex="221A"/>
  <outline>
    <contour>
      <point x="310" y="-163" type="line"/>
      <point x="397" y="-163" type="line"/>
      <point x="669" y="723" type="line"/>
      <point x="613" y="740" type="line"/>
      <point x="358" y="-82" type="line"/>
      <point x="191" y="294" type="line"/>
      <point x="3" y="220" type="line"/>
      <point x="25" y="164" type="line"/>
      <point x="142" y="209" type="line"/>
    </contour>
  </outline>
</glyph>
<glyph name="integral" format="2">
  <advance width="308"/>
  <unicode hex="222B"/>
  <outline>
    <contour>
      <point x="18" y="-178" type="line"/>
      <point x="113" y="-178"/>
      <point x="187" y="-169"/>
      <point x="187" y="-34" type="curve" smooth="yes"/>
      <point x="187" y="636" type="line" smooth="yes"/>
      <point x="187" y="706"/>
      <point x="210" y="726"/>
      <point x="290" y="727" type="curve"/>
      <point x="290" y="781" type="line"/>
      <point x="195" y="781"/>
      <point x="121" y="772"/>
      <point x="121" y="637" type="curve" smooth="yes"/>
      <point x="121" y="-33" type="line" smooth="yes"/>
      <point x="121" y="-103"/>
      <point x="98" y="-123"/>
      <point x="18" y="-124" type="curve"/>
    </contour>
  </outline>
</glyph>
<glyph name="greaterequal" format="2">
  <advance width="550"/>
  <unicode hex="2265"/>
  <outline>
    <contour>
      <point x="37" y="114" type="line"/>
      <point x="518" y="298" type="line"/>
      <point x="518" y="361" type="line"/>
      <point x="37" y="546" type="line"/>
      <point x="37" y="468" type="line"/>
      <point x="432" y="330" type="line"/>
      <point x="37" y="192" type="line"/>
    </contour>
    <contour>
      <point x="37" y="0" type="line"/>
      <point x="518" y="0" type="line"/>
      <point x="518" y="66" type="line"/>
      <point x="37" y="66" type="line"/>
    </contour>
  </outline>
</glyph>
<glyph name="whiteSquare" format="2">
  <advance width="725"/>
  <unicode hex="25A1"/>
  <outline>
    <contour>
      <point x="40" y="670" type="line"/>
      <point x="40" y="0" type="line"/>
      <point x="685" y="0" type="line"/>
      <point x="685" y="670" type="line"/>
    </contour>
    <contour>
      <point x="76" y="635" type="line"/>
      <point x="649" y="635" type="line"/>
      <point x="649" y="35" type="line"/>
      <point x="76" y="35" type="line"/>
    </contour>
  </outline>
</glyph>
<glyph name="upWhiteTriangle" format="2">
  <advance width="750"/>
  <unicode hex="25B3"/>
  <outline>
    <contour>
      <point x="374" y="670" type="line"/>
      <point x="40" y="0" type="line"/>
      <point x="710" y="0" type="line"/>
    </contour>
    <contour>
      <point x="374" y="590" type="line"/>
      <point x="647" y="37" type="line"/>
      <point x="99" y="37" type="line"/>
    </contour>
  </outline>
</glyph>
<glyph name="blackDiamond" format="2">
  <advance width="782"/>
  <unicode hex="25C6"/>
  <outline>
    <contour>
      <point x="391" y="687" type="line"/>
      <point x="40" y="335" type="line"/>
      <point x="391" y="-17" type="line"/>
      <point x="742" y="335" type="line"/>
    </contour>
  </outline>
</glyph>
<glyph name="leftanglebracket-math" format="2">
  <advance width="309"/>
  <unicode hex="27E8"/>
  <outline>
    <contour>
      <point x="210" y="-93" type="line"/>
      <point x="269" y="-93" type="line"/>
      <point x="142" y="294" type="line"/>
      <point x="269" y="681" type="line"/>
      <point x="210" y="681" type="line"/>
      <point x="80" y="294" type="line"/>
    </contour>
  </outline>
</glyph>
<glyph name="ldoublebar" format="2">
  <advance width="261"/>
  <unicode hex="2C61"/>
  <anchor x="131" y="0" name="bottom"/>
  <anchor x="131" y="350" name="center"/>
  <anchor x="131" y="700" name="top"/>
  <anchor x="213" y="499" name="topright"/>
  <outline>
    <contour>
      <point x="254" y="466" type="line"/>
      <point x="7" y="466" type="line"/>
      <point x="7" y="401" type="line"/>
      <point x="254" y="401" type="line"/>
    </contour>
    <contour>
      <point x="254" y="319" type="line"/>
      <point x="7" y="319" type="line"/>
      <point x="7" y="254" type="line"/>
      <point x="254" y="254" type="line"/>
    </contour>
    <component base="l" xOffset="28"/>
  </outline>
</glyph>
<glyph name="astroke" format="2">
  <advance width="595"/>
  <unicode hex="2C65"/>
  <anchor x="309" y="0" name="_bottom"/>
  <anchor x="298" y="0" name="bottom"/>
  <anchor x="540" y="0" name="ogonek"/>
  <anchor x="298" y="500" name="top"/>
  <outline>
    <contour>
      <point x="455" y="575" type="line"/>
      <point x="385" y="575" type="line"/>
      <point x="109" y="-75" type="line"/>
      <point x="179" y="-75" type="line"/>
    </contour>
    <component base="a"/>
  </outline>
</glyph>
<glyph name="tdiagonalstroke" format="2">
  <advance width="326"/>
  <unicode hex="2C66"/>
  <anchor x="187" y="0" name="_bottom"/>
  <anchor x="156" y="0" name="bottom"/>
  <anchor x="163" y="250" name="center"/>
  <anchor x="157" y="679" name="top"/>
  <anchor x="306" y="500" name="topright"/>
  <outline>
    <contour>
      <point x="344" y="575" type="line"/>
      <point x="274" y="575" type="line"/>
      <point x="-2" y="-75" type="line"/>
      <point x="68" y="-75" type="line"/>
    </contour>
    <component base="t"/>
  </outline>
</glyph>
<glyph name="Alpha-latin" format="2">
  <advance width="753"/>
  <unicode hex="2C6D"/>
  <anchor x="335" y="0" name="bottom"/>
  <anchor x="335" y="331" name="center"/>
  <anchor x="415" y="0" name="ogonek"/>
  <anchor x="335" y="662" name="top"/>
  <anchor x="-20" y="662" name="topleft"/>
  <anchor x="494" y="662" name="topright"/>
  <outline>
    <contour>
      <point x="671" y="198" type="curve" smooth="yes"/>
      <point x="671" y="662" type="line"/>
      <point x="596" y="662" type="line"/>
      <point x="596" y="557" type="line"/>
      <point x="540" y="626"/>
      <point x="457" y="670"/>
      <point x="355" y="670" type="curve" smooth="yes"/>
      <point x="166" y="670"/>
      <point x="39" y="519"/>
      <point x="39" y="331" type="curve" smooth="yes"/>
      <point x="39" y="143"/>
      <point x="166" y="-8"/>
      <point x="355" y="-8" type="curve" smooth="yes"/>
      <point x="462" y="-8"/>
      <point x="548" y="39"/>
      <point x="603" y="113" type="curve"/>
      <point x="624" y="35"/>
      <point x="690" y="-8"/>
      <point x="773" y="-8" type="curve"/>
      <point x="773" y="61" type="line"/>
      <point x="706" y="60"/>
      <point x="672" y="103"/>
    </contour>
    <contour>
      <point x="355" y="65" type="curve" smooth="yes"/>
      <point x="206" y="65"/>
      <point x="114" y="182"/>
      <point x="114" y="331" type="curve" smooth="yes"/>
      <point x="114" y="480"/>
      <point x="206" y="597"/>
      <point x="355" y="597" type="curve" smooth="yes"/>
      <point x="504" y="597"/>
      <point x="596" y="480"/>
      <point x="596" y="331" type="curve" smooth="yes"/>
      <point x="596" y="181"/>
      <point x="505" y="65"/>
    </contour>
  </outline>
</glyph>
<glyph name="whook" format="2">
  <advance width="892"/>
  <unicode hex="2C73"/>
  <anchor x="373" y="0" name="bottom"/>
  <anchor x="373" y="500" name="top"/>
  <outline>
    <contour>
      <point x="819" y="670" type="curve" smooth="yes"/>
      <point x="725" y="670"/>
      <point x="692" y="598"/>
      <point x="661" y="500" type="curve" smooth="yes"/>
      <point x="541" y="93" type="line"/>
      <point x="414" y="500" type="line"/>
      <point x="332" y="500" type="line"/>
      <point x="205" y="93" type="line"/>
      <point x="85" y="500" type="line"/>
      <point x="5" y="500" type="line"/>
      <point x="162" y="0" type="line"/>
      <point x="248" y="0" type="line"/>
      <point x="373" y="399" type="line"/>
      <point x="498" y="0" type="line"/>
      <point x="584" y="0" type="line"/>
      <point x="741" y="500" type="line" smooth="yes"/>
      <point x="756" y="549"/>
      <point x="770" y="596"/>
      <point x="820" y="596" type="curve" smooth="yes"/>
      <point x="852" y="596"/>
      <point x="865" y="571"/>
      <point x="876" y="537" type="curve"/>
      <point x="932" y="562" type="line"/>
      <point x="917" y="641"/>
      <point x="869" y="670"/>
    </contour>
  </outline>
</glyph>
<glyph name="Heng" format="2">
  <advance width="697"/>
  <unicode hex="A726"/>
  <anchor x="752" y="0" name="_bottom"/>
  <anchor x="349" y="0" name="bottom"/>
  <anchor x="349" y="504" name="center"/>
  <anchor x="349" y="662" name="top"/>
  <anchor x="20" y="662" name="topleft"/>
  <outline>
    <contour>
      <point x="541" y="0" type="line"/>
      <point x="541" y="-105"/>
      <point x="498" y="-137"/>
      <point x="430" y="-137" type="curve" smooth="yes"/>
      <point x="415" y="-137"/>
      <point x="400" y="-136"/>
      <point x="384" y="-133" type="curve"/>
      <point x="384" y="-201" type="line"/>
      <point x="403" y="-205"/>
      <point x="422" y="-206"/>
      <point x="439" y="-206" type="curve" smooth="yes"/>
      <point x="540" y="-206"/>
      <point x="616" y="-143"/>
      <point x="616" y="-19" type="curve" smooth="yes"/>
      <point x="616" y="0" type="line"/>
    </contour>
    <component base="H"/>
  </outline>
</glyph>
<glyph name="Kstroke" format="2">
  <advance width="641"/>
  <unicode hex="A740"/>
  <anchor x="321" y="0" name="bottom"/>
  <anchor x="321" y="662" name="top"/>
  <outline>
    <contour>
      <point x="262" y="565" type="line"/>
      <point x="-25" y="565" type="line"/>
      <point x="-25" y="500" type="line"/>
      <point x="262" y="500" type="line"/>
    </contour>
    <component base="K"/>
  </outline>
</glyph>
<glyph name="kstroke" format="2">
  <advance width="502"/>
  <unicode hex="A741"/>
  <anchor x="251" y="0" name="bottom"/>
  <anchor x="105" y="700" name="top"/>
  <outline>
    <contour>
      <point x="255" y="623" type="line"/>
      <point x="8" y="623" type="line"/>
      <point x="8" y="558" type="line"/>
      <point x="255" y="558" type="line"/>
    </contour>
    <component base="k"/>
  </outline>
</glyph>
<glyph name="colonmod" format="2">
  <advance width="203"/>
  <unicode hex="A789"/>
  <outline>
    <contour>
      <point x="53" y="348" type="line"/>
      <point x="150" y="348" type="line"/>
      <point x="150" y="450" type="line"/>
      <point x="53" y="450" type="line"/>
    </contour>
    <contour>
      <point x="53" y="50" type="line"/>
      <point x="150" y="50" type="line"/>
      <point x="150" y="152" type="line"/>
      <point x="53" y="152" type="line"/>
    </contour>
  </outline>
</glyph>
<glyph name="Saltillo" format="2">
  <advance width="221"/>
  <unicode hex="A78B"/>
  <outline>
    <contour>
      <point x="83" y="291" type="line"/>
      <point x="138" y="291" type="line"/>
      <point x="157" y="770" type="line"/>
      <point x="64" y="770" type="line"/>
    </contour>
  </outline>
</glyph>
<glyph name="saltillo" format="2">
  <advance width="221"/>
  <unicode hex="A78C"/>
  <outline>
    <contour>
      <point x="83" y="320" type="line"/>
      <point x="138" y="320" type="line"/>
      <point x="157" y="662" type="line"/>
      <point x="64" y="662" type="line"/>
    </contour>
  </outline>
</glyph>
<glyph name="Hturned" format="2">
  <advance width="657"/>
  <unicode hex="A78D"/>
  <anchor x="341" y="0" name="bottom"/>
  <anchor x="329" y="504" name="center"/>
  <anchor x="329" y="662" name="top"/>
  <anchor x="0" y="662" name="topleft"/>
  <outline>
    <contour>
      <point x="576" y="662" type="line"/>
      <point x="501" y="662" type="line"/>
      <point x="501" y="412" type="line" smooth="yes"/>
      <point x="501" y="323"/>
      <point x="412" y="280"/>
      <point x="325" y="280" type="curve" smooth="yes"/>
      <point x="240" y="280"/>
      <point x="156" y="320"/>
      <point x="156" y="411" type="curve" smooth="yes"/>
      <point x="156" y="662" type="line"/>
      <point x="81" y="662" type="line"/>
      <point x="81" y="409" type="line" smooth="yes"/>
      <point x="81" y="279"/>
      <point x="189" y="207"/>
      <point x="307" y="207" type="curve" smooth="yes"/>
      <point x="374" y="207"/>
      <point x="445" y="230"/>
      <point x="501" y="278" type="curve"/>
      <point x="501" y="0" type="line"/>
      <point x="576" y="0" type="line"/>
    </contour>
  </outline>
</glyph>
<glyph name="Lbelt" format="2">
  <advance width="533"/>
  <unicode hex="A7AD"/>
  <guideline x="328" y="298" angle="0"/>
  <anchor x="287" y="0" name="bottom"/>
  <anchor x="267" y="331" name="center"/>
  <anchor x="119" y="662" name="top"/>
  <anchor x="406" y="464" name="topright"/>
  <outline>
    <contour>
      <point x="131" y="363" type="line"/>
      <point x="131" y="435"/>
      <point x="89" y="502"/>
      <point x="23" y="502" type="curve" smooth="yes"/>
      <point x="-35" y="502"/>
      <point x="-70" y="457"/>
      <point x="-70" y="410" type="curve" smooth="yes"/>
      <point x="-70" y="356"/>
      <point x="-25" y="298"/>
      <point x="56" y="298" type="curve" smooth="yes"/>
      <point x="355" y="298" type="line"/>
      <point x="355" y="363" type="line"/>
    </contour>
    <contour>
      <point x="-6" y="411" type="curve" smooth="yes"/>
      <point x="-6" y="435"/>
      <point x="10" y="445"/>
      <point x="23" y="445" type="curve" smooth="yes"/>
      <point x="63" y="445"/>
      <point x="81" y="402"/>
      <point x="81" y="363" type="curve"/>
      <point x="56" y="363" type="line" smooth="yes"/>
      <point x="16" y="363"/>
      <point x="-6" y="385"/>
    </contour>
    <component base="L"/>
  </outline>
</glyph>
<glyph name="uniA7AE" format="2">
  <advance width="237"/>
  <unicode hex="A7AE"/>
  <anchor x="119" y="0" name="bottom"/>
  <anchor x="166" y="2" name="ogonek"/>
  <anchor x="119" y="662" name="top"/>
  <anchor x="20" y="662" name="topleft"/>
  <outline>
    <contour>
      <point x="16" y="596" type="line"/>
      <point x="221" y="596" type="line"/>
      <point x="221" y="662" type="line"/>
      <point x="16" y="662" type="line"/>
    </contour>
    <contour>
      <point x="16" y="0" type="line"/>
      <point x="221" y="0" type="line"/>
      <point x="221" y="66" type="line"/>
      <point x="16" y="66" type="line"/>
    </contour>
    <component base="I"/>
  </outline>
</glyph>
<glyph name="beta-latin" format="2">
  <advance width="558"/>
  <unicode hex="A7B5"/>
  <outline>
    <contour>
      <point x="381" y="357" type="curve"/>
      <point x="431" y="374"/>
      <point x="489" y="415"/>
      <point x="489" y="518" type="curve" smooth="yes"/>
      <point x="489" y="654"/>
      <point x="389" y="708"/>
      <point x="279" y="708" type="curve" smooth="yes"/>
      <point x="145" y="708"/>
      <point x="65" y="635"/>
      <point x="65" y="514" type="curve" smooth="yes"/>
      <point x="65" y="-198" type="line"/>
      <point x="140" y="-198" type="line"/>
      <point x="140" y="28" type="line"/>
      <point x="191" y="9"/>
      <point x="238" y="0"/>
      <point x="293" y="0" type="curve" smooth="yes"/>
      <point x="435" y="0"/>
      <point x="523" y="67"/>
      <point x="523" y="185" type="curve" smooth="yes"/>
      <point x="523" y="297"/>
      <point x="439" y="344"/>
    </contour>
    <contour>
      <point x="294" y="66" type="curve" smooth="yes"/>
      <point x="243" y="66"/>
      <point x="191" y="75"/>
      <point x="140" y="94" type="curve"/>
      <point x="140" y="510" type="line" smooth="yes"/>
      <point x="140" y="613"/>
      <point x="198" y="641"/>
      <point x="278" y="641" type="curve" smooth="yes"/>
      <point x="370" y="641"/>
      <point x="414" y="592"/>
      <point x="414" y="509" type="curve" smooth="yes"/>
      <point x="414" y="427"/>
      <point x="343" y="379"/>
      <point x="253" y="379" type="curve"/>
      <point x="253" y="324" type="line"/>
      <point x="377" y="324"/>
      <point x="447" y="272"/>
      <point x="447" y="196" type="curve" smooth="yes"/>
      <point x="447" y="106"/>
      <point x="385" y="66"/>
    </contour>
  </outline>
</glyph>
<glyph name="uniA7B8" format="2">
  <advance width="709"/>
  <unicode hex="A7B8"/>
  <anchor x="355" y="0" name="_bottom"/>
  <anchor x="355" y="0" name="bottom"/>
  <anchor x="434" y="10" name="ogonek"/>
  <anchor x="355" y="662" name="top"/>
  <anchor x="689" y="662" name="topright"/>
  <outline>
    <contour>
      <point x="68" y="-75" type="line"/>
      <point x="148" y="-75" type="line"/>
      <point x="752" y="725" type="line"/>
      <point x="672" y="725" type="line"/>
    </contour>
    <component base="U"/>
  </outline>
</glyph>
<glyph name="chi-latin" format="2">
  <advance width="603"/>
  <unicode hex="AB53"/>
  <anchor x="299" y="-198" name="bottom"/>
  <anchor x="299" y="500" name="top"/>
  <outline>
    <contour>
      <point x="555" y="-83" type="line"/>
      <point x="545" y="-106"/>
      <point x="532" y="-133"/>
      <point x="506" y="-133" type="curve" smooth="yes"/>
      <point x="474" y="-133"/>
      <point x="456" y="-89"/>
      <point x="437" y="-49" type="curve" smooth="yes"/>
      <point x="339" y="158" type="line"/>
      <point x="523" y="500" type="line"/>
      <point x="427" y="500" type="line"/>
      <point x="301" y="237" type="line"/>
      <point x="234" y="383" type="line" smooth="yes"/>
      <point x="203" y="450"/>
      <point x="176" y="507"/>
      <point x="111" y="507" type="curve" smooth="yes"/>
      <point x="62" y="507"/>
      <point x="24" y="476"/>
      <point x="4" y="420" type="curve"/>
      <point x="47" y="386" type="line"/>
      <point x="57" y="409"/>
      <point x="71" y="436"/>
      <point x="97" y="436" type="curve" smooth="yes"/>
      <point x="129" y="436"/>
      <point x="146" y="392"/>
      <point x="165" y="352" type="curve" smooth="yes"/>
      <point x="256" y="159" type="line"/>
      <point x="62" y="-198" type="line"/>
      <point x="157" y="-198" type="line"/>
      <point x="295" y="79" type="line"/>
      <point x="317" y="33"/>
      <point x="340" y="-20"/>
      <point x="368" y="-80" type="curve" smooth="yes"/>
      <point x="399" y="-147"/>
      <point x="426" y="-204"/>
      <point x="491" y="-204" type="curve" smooth="yes"/>
      <point x="540" y="-204"/>
      <point x="579" y="-173"/>
      <point x="599" y="-117" type="curve"/>
    </contour>
  </outline>
</glyph>
<glyph name="ae.sc" format="2">
  <advance width="845"/>
  <anchor x="427" y="0" name="bottom"/>
  <anchor x="491" y="546" name="top"/>
  <outline>
    <contour>
      <point x="2" y="0" type="line"/>
      <point x="92" y="0" type="line"/>
      <point x="192" y="149" type="line"/>
      <point x="428" y="149" type="line"/>
      <point x="428" y="0" type="line"/>
      <point x="813" y="0" type="line"/>
      <point x="813" y="74" type="line"/>
      <point x="503" y="74" type="line"/>
      <point x="503" y="237" type="line"/>
      <point x="778" y="237" type="line"/>
      <point x="778" y="310" type="line"/>
      <point x="503" y="310" type="line"/>
      <point x="503" y="473" type="line"/>
      <point x="813" y="473" type="line"/>
      <point x="813" y="546" type="line"/>
      <point x="374" y="546" type="line"/>
    </contour>
    <contour>
      <point x="240" y="219" type="line"/>
      <point x="412" y="473" type="line"/>
      <point x="428" y="473" type="line"/>
      <point x="428" y="219" type="line"/>
    </contour>
  </outline>
</glyph>
<glyph name="c.sc" format="2">
  <advance width="569"/>
  <anchor x="285" y="0" name="bottom"/>
  <anchor x="294" y="546" name="top"/>
  <outline>
    <contour>
      <point x="294" y="-6" type="curve" smooth="yes"/>
      <point x="414" y="-6"/>
      <point x="511" y="62"/>
      <point x="544" y="173" type="curve"/>
      <point x="466" y="173" type="line"/>
      <point x="439" y="105"/>
      <point x="380" y="68"/>
      <point x="299" y="68" type="curve" smooth="yes"/>
      <point x="183" y="68"/>
      <point x="106" y="149"/>
      <point x="106" y="273" type="curve" smooth="yes"/>
      <point x="106" y="397"/>
      <point x="183" y="479"/>
      <point x="299" y="479" type="curve" smooth="yes"/>
      <point x="380" y="479"/>
      <point x="439" y="440"/>
      <point x="466" y="371" type="curve"/>
      <point x="544" y="371" type="line"/>
      <point x="510" y="482"/>
      <point x="414" y="552"/>
      <point x="294" y="552" type="curve" smooth="yes"/>
      <point x="139" y="552"/>
      <point x="31" y="436"/>
      <point x="31" y="273" type="curve" smooth="yes"/>
      <point x="31" y="110"/>
      <point x="139" y="-6"/>
    </contour>
  </outline>
</glyph>
<glyph name="circumflexcomb_tildecomb" format="2">
  <anchor x="141" y="500" name="_top"/>
  <anchor x="141" y="812" name="top"/>
  <outline>
    <contour>
      <point x="191" y="726" type="curve" smooth="yes"/>
      <point x="244" y="726"/>
      <point x="264" y="771"/>
      <point x="270" y="817" type="curve"/>
      <point x="244" y="817" type="line"/>
      <point x="239" y="803"/>
      <point x="227" y="784"/>
      <point x="203" y="784" type="curve" smooth="yes"/>
      <point x="165" y="784"/>
      <point x="144" y="828"/>
      <point x="91" y="828" type="curve" smooth="yes"/>
      <point x="37" y="828"/>
      <point x="16" y="782"/>
      <point x="11" y="737" type="curve"/>
      <point x="37" y="737" type="line"/>
      <point x="42" y="751"/>
      <point x="52" y="769"/>
      <point x="78" y="769" type="curve" smooth="yes"/>
      <point x="116" y="769"/>
      <point x="137" y="726"/>
    </contour>
    <component base="circumflexcomb"/>
  </outline>
</glyph>
<glyph name="e.sc" format="2">
  <advance width="502"/>
  <anchor x="270" y="0" name="bottom"/>
  <anchor x="479" y="0" name="ogonek"/>
  <anchor x="265" y="546" name="top"/>
  <anchor x="23" y="546" name="topleft"/>
  <outline>
    <contour>
      <point x="65" y="0" type="line"/>
      <point x="470" y="0" type="line"/>
      <point x="470" y="74" type="line"/>
      <point x="140" y="74" type="line"/>
      <point x="140" y="237" type="line"/>
      <point x="434" y="237" type="line"/>
      <point x="434" y="310" type="line"/>
      <point x="140" y="310" type="line"/>
      <point x="140" y="473" type="line"/>
      <point x="470" y="473" type="line"/>
      <point x="470" y="546" type="line"/>
      <point x="65" y="546" type="line"/>
    </contour>
  </outline>
</glyph>
<glyph name="eth.sc" format="2">
  <advance width="578"/>
  <anchor x="248" y="0" name="bottom"/>
  <anchor x="275" y="265" name="center"/>
  <anchor x="289" y="546" name="top"/>
  <outline>
    <contour>
      <point x="305" y="305" type="line"/>
      <point x="-1" y="305" type="line"/>
      <point x="-1" y="241" type="line"/>
      <point x="305" y="241" type="line"/>
    </contour>
    <component base="d.sc"/>
  </outline>
</glyph>
<glyph name="five.sups" format="2">
  <advance width="359"/>
  <outline>
    <contour>
      <point x="176" y="443" type="curve" smooth="yes"/>
      <point x="267" y="443"/>
      <point x="311" y="509"/>
      <point x="311" y="574" type="curve" smooth="yes"/>
      <point x="311" y="637"/>
      <point x="272" y="700"/>
      <point x="178" y="700" type="curve" smooth="yes"/>
      <point x="159" y="700"/>
      <point x="139" y="696"/>
      <point x="126" y="690" type="curve"/>
      <point x="139" y="776" type="line"/>
      <point x="292" y="776" type="line"/>
      <point x="292" y="836" type="line"/>
      <point x="83" y="836" type="line"/>
      <point x="55" y="640" type="line"/>
      <point x="97" y="608" type="line"/>
      <point x="108" y="627"/>
      <point x="145" y="641"/>
      <point x="172" y="641" type="curve" smooth="yes"/>
      <point x="224" y="641"/>
      <point x="249" y="607"/>
      <point x="249" y="573" type="curve" smooth="yes"/>
      <point x="249" y="538"/>
      <point x="226" y="502"/>
      <point x="175" y="502" type="curve" smooth="yes"/>
      <point x="134" y="502"/>
      <point x="103" y="526"/>
      <point x="96" y="563" type="curve"/>
      <point x="32" y="563" type="line"/>
      <point x="42" y="487"/>
      <point x="99" y="443"/>
    </contour>
  </outline>
</glyph>
<glyph name="g.sc" format="2">
  <advance width="593"/>
  <anchor x="296" y="0" name="bottom"/>
  <anchor x="300" y="546" name="top"/>
  <outline>
    <contour>
      <point x="289" y="298" type="line"/>
      <point x="289" y="227" type="line"/>
      <point x="481" y="227" type="line"/>
      <point x="481" y="135"/>
      <point x="402" y="68"/>
      <point x="302" y="68" type="curve" smooth="yes"/>
      <point x="185" y="68"/>
      <point x="106" y="150"/>
      <point x="106" y="273" type="curve" smooth="yes"/>
      <point x="106" y="395"/>
      <point x="186" y="479"/>
      <point x="304" y="479" type="curve" smooth="yes"/>
      <point x="379" y="479"/>
      <point x="437" y="445"/>
      <point x="470" y="386" type="curve"/>
      <point x="551" y="386" type="line"/>
      <point x="511" y="488"/>
      <point x="414" y="552"/>
      <point x="299" y="552" type="curve" smooth="yes"/>
      <point x="143" y="552"/>
      <point x="31" y="434"/>
      <point x="31" y="273" type="curve" smooth="yes"/>
      <point x="31" y="110"/>
      <point x="140" y="-6"/>
      <point x="297" y="-6" type="curve" smooth="yes"/>
      <point x="373" y="-6"/>
      <point x="438" y="25"/>
      <point x="482" y="80" type="curve"/>
      <point x="482" y="0" type="line"/>
      <point x="552" y="0" type="line"/>
      <point x="552" y="298" type="line"/>
    </contour>
  </outline>
</glyph>
<glyph name="germandbls.sc" format="2">
  <advance width="527"/>
  <outline>
    <contour>
      <point x="343" y="300" type="curve" smooth="yes"/>
      <point x="338" y="300" type="line"/>
      <point x="465" y="477" type="line"/>
      <point x="465" y="546" type="line"/>
      <point x="214" y="546" type="line" smooth="yes"/>
      <point x="115" y="546"/>
      <point x="52" y="485"/>
      <point x="52" y="392" type="curve" smooth="yes"/>
      <point x="52" y="0" type="line"/>
      <point x="127" y="0" type="line"/>
      <point x="127" y="389" type="line" smooth="yes"/>
      <point x="127" y="451"/>
      <point x="159" y="475"/>
      <point x="229" y="475" type="curve" smooth="yes"/>
      <point x="369" y="475" type="line"/>
      <point x="248" y="300" type="line"/>
      <point x="248" y="231" type="line"/>
      <point x="327" y="231" type="line" smooth="yes"/>
      <point x="388" y="231"/>
      <point x="424" y="200"/>
      <point x="424" y="149" type="curve" smooth="yes"/>
      <point x="424" y="97"/>
      <point x="383" y="69"/>
      <point x="308" y="69" type="curve" smooth="yes"/>
      <point x="206" y="69" type="line"/>
      <point x="206" y="0" type="line"/>
      <point x="307" y="0" type="line" smooth="yes"/>
      <point x="423" y="0"/>
      <point x="499" y="58"/>
      <point x="499" y="148" type="curve" smooth="yes"/>
      <point x="499" y="239"/>
      <point x="437" y="300"/>
    </contour>
  </outline>
</glyph>
<glyph name="h.sc" format="2">
  <advance width="573"/>
  <anchor x="287" y="0" name="bottom"/>
  <anchor x="287" y="421" name="center"/>
  <anchor x="287" y="546" name="top"/>
  <anchor x="20" y="546" name="topleft"/>
  <outline>
    <contour>
      <point x="65" y="0" type="line"/>
      <point x="140" y="0" type="line"/>
      <point x="140" y="237" type="line"/>
      <point x="433" y="237" type="line"/>
      <point x="433" y="0" type="line"/>
      <point x="508" y="0" type="line"/>
      <point x="508" y="546" type="line"/>
      <point x="433" y="546" type="line"/>
      <point x="433" y="310" type="line"/>
      <point x="140" y="310" type="line"/>
      <point x="140" y="546" type="line"/>
      <point x="65" y="546" type="line"/>
    </contour>
  </outline>
</glyph>
<glyph name="j.sc" format="2">
  <advance width="441"/>
  <anchor x="222" y="0" name="bottom"/>
  <anchor x="338" y="546" name="top"/>
  <outline>
    <contour>
      <point x="200" y="-6" type="curve" smooth="yes"/>
      <point x="313" y="-6"/>
      <point x="381" y="66"/>
      <point x="381" y="183" type="curve" smooth="yes"/>
      <point x="381" y="546" type="line"/>
      <point x="306" y="546" type="line"/>
      <point x="306" y="186" type="line" smooth="yes"/>
      <point x="306" y="106"/>
      <point x="272" y="68"/>
      <point x="203" y="68" type="curve" smooth="yes"/>
      <point x="142" y="68"/>
      <point x="92" y="104"/>
      <point x="92" y="158" type="curve"/>
      <point x="15" y="158" type="line"/>
      <point x="15" y="62"/>
      <point x="96" y="-6"/>
    </contour>
  </outline>
</glyph>
<glyph name="k.sc" format="2">
  <advance width="539"/>
  <anchor x="264" y="0" name="bottom"/>
  <anchor x="275" y="546" name="top"/>
  <outline>
    <contour>
      <point x="65" y="0" type="line"/>
      <point x="140" y="0" type="line"/>
      <point x="140" y="179" type="line"/>
      <point x="241" y="273" type="line"/>
      <point x="445" y="0" type="line"/>
      <point x="539" y="0" type="line"/>
      <point x="296" y="324" type="line"/>
      <point x="530" y="546" type="line"/>
      <point x="423" y="546" type="line"/>
      <point x="140" y="279" type="line"/>
      <point x="140" y="546" type="line"/>
      <point x="65" y="546" type="line"/>
    </contour>
  </outline>
</glyph>
<glyph name="m.sc" format="2">
  <advance width="660"/>
  <anchor x="330" y="0" name="bottom"/>
  <anchor x="331" y="546" name="top"/>
  <outline>
    <contour>
      <point x="65" y="0" type="line"/>
      <point x="140" y="0" type="line"/>
      <point x="140" y="424" type="line"/>
      <point x="331" y="182" type="line"/>
      <point x="520" y="424" type="line"/>
      <point x="520" y="0" type="line"/>
      <point x="595" y="0" type="line"/>
      <point x="595" y="546" type="line"/>
      <point x="514" y="546" type="line"/>
      <point x="331" y="299" type="line"/>
      <point x="146" y="546" type="line"/>
      <point x="65" y="546" type="line"/>
    </contour>
  </outline>
</glyph>
<glyph name="n.sc" format="2">
  <advance width="602"/>
  <anchor x="301" y="0" name="bottom"/>
  <anchor x="301" y="546" name="top"/>
  <outline>
    <contour>
      <point x="462" y="546" type="line"/>
      <point x="462" y="114" type="line"/>
      <point x="146" y="546" type="line"/>
      <point x="65" y="546" type="line"/>
      <point x="65" y="0" type="line"/>
      <point x="140" y="0" type="line"/>
      <point x="140" y="432" type="line"/>
      <point x="455" y="0" type="line"/>
      <point x="537" y="0" type="line"/>
      <point x="537" y="546" type="line"/>
    </contour>
  </outline>
</glyph>
<glyph name="o.sc" format="2">
  <advance width="615"/>
  <anchor x="307" y="0" name="bottom"/>
  <anchor x="307" y="273" name="center"/>
  <anchor x="401" y="0" name="ogonek"/>
  <anchor x="307" y="546" name="top"/>
  <anchor x="23" y="546" name="topleft"/>
  <anchor x="648" y="545" name="topright"/>
  <outline>
    <contour>
      <point x="307" y="-6" type="curve" smooth="yes"/>
      <point x="466" y="-6"/>
      <point x="584" y="113"/>
      <point x="584" y="273" type="curve" smooth="yes"/>
      <point x="584" y="432"/>
      <point x="466" y="552"/>
      <point x="307" y="552" type="curve" smooth="yes"/>
      <point x="148" y="552"/>
      <point x="31" y="433"/>
      <point x="31" y="273" type="curve" smooth="yes"/>
      <point x="31" y="113"/>
      <point x="148" y="-6"/>
    </contour>
    <contour>
      <point x="307" y="67" type="curve" smooth="yes"/>
      <point x="188" y="67"/>
      <point x="106" y="152"/>
      <point x="106" y="273" type="curve" smooth="yes"/>
      <point x="106" y="394"/>
      <point x="188" y="478"/>
      <point x="307" y="479" type="curve" smooth="yes"/>
      <point x="425" y="480"/>
      <point x="509" y="394"/>
      <point x="509" y="273" type="curve" smooth="yes"/>
      <point x="509" y="152"/>
      <point x="425" y="67"/>
    </contour>
  </outline>
</glyph>
<glyph name="one.lf" format="2">
  <advance width="550"/>
  <outline>
    <contour>
      <point x="275" y="0" type="line"/>
      <point x="350" y="0" type="line"/>
      <point x="350" y="662" type="line"/>
      <point x="135" y="662" type="line"/>
      <point x="135" y="590" type="line"/>
      <point x="275" y="590" type="line"/>
    </contour>
  </outline>
</glyph>
<glyph name="oslash.sc" format="2">
  <advance width="615"/>
  <anchor x="308" y="0" name="bottom"/>
  <anchor x="307" y="546" name="top"/>
  <anchor x="307" y="273" name="center"/>
  <anchor x="401" y="0" name="ogonek"/>
  <anchor x="23" y="546" name="topleft"/>
  <anchor x="648" y="545" name="topright"/>
  <outline>
    <contour>
      <point x="88" y="-17" type="line"/>
      <point x="568" y="531" type="line"/>
      <point x="536" y="559" type="line"/>
      <point x="57" y="11" type="line"/>
    </contour>
    <component base="o.sc"/>
  </outline>
</glyph>
<glyph name="p.sc" format="2">
  <advance width="518"/>
  <anchor x="258" y="0" name="bottom"/>
  <anchor x="258" y="546" name="top"/>
  <outline>
    <contour>
      <point x="65" y="0" type="line"/>
      <point x="140" y="0" type="line"/>
      <point x="140" y="190" type="line"/>
      <point x="310" y="190" type="line" smooth="yes"/>
      <point x="427" y="190"/>
      <point x="501" y="258"/>
      <point x="501" y="367" type="curve" smooth="yes"/>
      <point x="501" y="476"/>
      <point x="426" y="546"/>
      <point x="310" y="546" type="curve" smooth="yes"/>
      <point x="65" y="546" type="line"/>
    </contour>
    <contour>
      <point x="140" y="261" type="line"/>
      <point x="140" y="474" type="line"/>
      <point x="306" y="474" type="line" smooth="yes"/>
      <point x="383" y="474"/>
      <point x="426" y="436"/>
      <point x="426" y="367" type="curve" smooth="yes"/>
      <point x="426" y="298"/>
      <point x="383" y="261"/>
      <point x="306" y="261" type="curve" smooth="yes"/>
    </contour>
  </outline>
</glyph>
<glyph name="period.dnom" format="2">
  <advance width="138"/>
  <outline>
    <contour>
      <point x="25" y="0" type="line"/>
      <point x="113" y="0" type="line"/>
      <point x="113" y="91" type="line"/>
      <point x="25" y="91" type="line"/>
    </contour>
  </outline>
</glyph>
<glyph name="r.sc" format="2">
  <advance width="556"/>
  <anchor x="275" y="0" name="bottom"/>
  <anchor x="255" y="546" name="top"/>
  <outline>
    <contour>
      <point x="65" y="0" type="line"/>
      <point x="140" y="0" type="line"/>
      <point x="140" y="204" type="line"/>
      <point x="312" y="204" type="line"/>
      <point x="440" y="0" type="line"/>
      <point x="529" y="0" type="line"/>
      <point x="388" y="217" type="line"/>
      <point x="469" y="238"/>
      <point x="512" y="291"/>
      <point x="512" y="372" type="curve" smooth="yes"/>
      <point x="512" y="477"/>
      <point x="438" y="546"/>
      <point x="326" y="546" type="curve" smooth="yes"/>
      <point x="65" y="546" type="line"/>
    </contour>
    <contour>
      <point x="140" y="276" type="line"/>
      <point x="140" y="474" type="line"/>
      <point x="318" y="474" type="line" smooth="yes"/>
      <point x="390" y="474"/>
      <point x="437" y="434"/>
      <point x="437" y="372" type="curve" smooth="yes"/>
      <point x="437" y="311"/>
      <point x="391" y="276"/>
      <point x="315" y="276" type="curve" smooth="yes"/>
    </contour>
  </outline>
</glyph>
<glyph name="s.sc" format="2">
  <advance width="507"/>
  <anchor x="255" y="0" name="bottom"/>
  <anchor x="245" y="546" name="top"/>
  <outline>
    <contour>
      <point x="263" y="-6" type="curve" smooth="yes"/>
      <point x="399" y="-6"/>
      <point x="479" y="53"/>
      <point x="479" y="154" type="curve" smooth="yes"/>
      <point x="479" y="262"/>
      <point x="363" y="290"/>
      <point x="264" y="313" type="curve" smooth="yes"/>
      <point x="183" y="332"/>
      <point x="115" y="349"/>
      <point x="115" y="398" type="curve" smooth="yes"/>
      <point x="115" y="451"/>
      <point x="164" y="481"/>
      <point x="249" y="481" type="curve" smooth="yes"/>
      <point x="335" y="481"/>
      <point x="390" y="445"/>
      <point x="390" y="386" type="curve"/>
      <point x="467" y="386" type="line"/>
      <point x="467" y="489"/>
      <point x="380" y="552"/>
      <point x="249" y="552" type="curve" smooth="yes"/>
      <point x="121" y="552"/>
      <point x="42" y="494"/>
      <point x="42" y="398" type="curve" smooth="yes"/>
      <point x="42" y="293"/>
      <point x="155" y="266"/>
      <point x="252" y="243" type="curve" smooth="yes"/>
      <point x="334" y="224"/>
      <point x="405" y="206"/>
      <point x="405" y="152" type="curve" smooth="yes"/>
      <point x="405" y="96"/>
      <point x="356" y="66"/>
      <point x="267" y="66" type="curve" smooth="yes"/>
      <point x="163" y="66"/>
      <point x="103" y="105"/>
      <point x="103" y="173" type="curve"/>
      <point x="26" y="173" type="line"/>
      <point x="26" y="56"/>
      <point x="115" y="-6"/>
    </contour>
  </outline>
</glyph>
<glyph name="seven.lf" format="2">
  <advance width="550"/>
  <outline>
    <contour>
      <point x="143" y="0" type="line"/>
      <point x="230" y="0" type="line"/>
      <point x="506" y="577" type="line"/>
      <point x="506" y="662" type="line"/>
      <point x="47" y="662" type="line"/>
      <point x="47" y="590" type="line"/>
      <point x="429" y="590" type="line"/>
    </contour>
  </outline>
</glyph>
<glyph name="thorn.sc" format="2">
  <advance width="518"/>
  <outline>
    <contour>
      <point x="65" y="0" type="line"/>
      <point x="140" y="0" type="line"/>
      <point x="140" y="112" type="line"/>
      <point x="310" y="112" type="line" smooth="yes"/>
      <point x="427" y="112"/>
      <point x="501" y="181"/>
      <point x="501" y="290" type="curve" smooth="yes"/>
      <point x="501" y="398"/>
      <point x="426" y="468"/>
      <point x="310" y="468" type="curve" smooth="yes"/>
      <point x="140" y="468" type="line"/>
      <point x="140" y="546" type="line"/>
      <point x="65" y="546" type="line"/>
    </contour>
    <contour>
      <point x="140" y="183" type="line"/>
      <point x="140" y="396" type="line"/>
      <point x="306" y="396" type="line" smooth="yes"/>
      <point x="383" y="396"/>
      <point x="426" y="358"/>
      <point x="426" y="290" type="curve" smooth="yes"/>
      <point x="426" y="221"/>
      <point x="383" y="183"/>
      <point x="306" y="183" type="curve" smooth="yes"/>
    </contour>
  </outline>
</glyph>
<glyph name="two.lf" format="2">
  <advance width="550"/>
  <outline>
    <contour>
      <point x="52" y="0" type="line"/>
      <point x="497" y="0" type="line"/>
      <point x="497" y="72" type="line"/>
      <point x="141" y="72" type="line"/>
      <point x="153" y="189"/>
      <point x="499" y="290"/>
      <point x="499" y="475" type="curve" smooth="yes"/>
      <point x="499" y="585"/>
      <point x="416" y="670"/>
      <point x="273" y="670" type="curve" smooth="yes"/>
      <point x="151" y="670"/>
      <point x="54" y="596"/>
      <point x="43" y="482" type="curve"/>
      <point x="118" y="482" type="line"/>
      <point x="128" y="556"/>
      <point x="187" y="597"/>
      <point x="275" y="597" type="curve" smooth="yes"/>
      <point x="371" y="597"/>
      <point x="424" y="550"/>
      <point x="424" y="473" type="curve" smooth="yes"/>
      <point x="424" y="321"/>
      <point x="52" y="237"/>
      <point x="52" y="41" type="curve" smooth="yes"/>
    </contour>
  </outline>
</glyph>
<glyph name="y.sc" format="2">
  <advance width="536"/>
  <anchor x="269" y="0" name="bottom"/>
  <anchor x="268" y="546" name="top"/>
  <anchor x="33" y="530" name="topleft"/>
  <outline>
    <contour>
      <point x="231" y="0" type="line"/>
      <point x="306" y="0" type="line"/>
      <point x="306" y="216" type="line"/>
      <point x="534" y="546" type="line"/>
      <point x="443" y="546" type="line"/>
      <point x="268" y="293" type="line"/>
      <point x="93" y="546" type="line"/>
      <point x="2" y="546" type="line"/>
      <point x="231" y="216" type="line"/>
    </contour>
  </outline>
</glyph>
<glyph name="z.sc" format="2">
  <advance width="482"/>
  <anchor x="240" y="0" name="bottom"/>
  <anchor x="240" y="265" name="center"/>
  <anchor x="250" y="546" name="top"/>
  <outline>
    <contour>
      <point x="23" y="0" type="line"/>
      <point x="457" y="0" type="line"/>
      <point x="457" y="72" type="line"/>
      <point x="120" y="72" type="line"/>
      <point x="457" y="477" type="line"/>
      <point x="457" y="546" type="line"/>
      <point x="28" y="546" type="line"/>
      <point x="28" y="475" type="line"/>
      <point x="360" y="475" type="line"/>
      <point x="23" y="68" type="line"/>
    </contour>
  </outline>
</glyph>
